<svg width="136" height="80" viewBox="0 0 136 80" fill="none" xmlns="http://www.w3.org/2000/svg">
<path fill-rule="evenodd" clip-rule="evenodd" d="M35.8238 13.724H50.4246C55.124 15.1171 52.6311 21.0429 48.3823 21.0417C44.0719 21.0417 43.289 18.4765 46.0931 14.6268L41.9493 14.675C41.9098 18.2443 39.5947 20.8181 35.3299 20.9947C30.3243 21.1998 30.47 15.6568 35.8238 13.724ZM47.0216 10.9204H50.1764C50.4641 9.62234 49.8677 8.76768 48.4478 9.0678C48.2312 9.09228 48.0218 9.16016 47.832 9.26739C47.6422 9.37462 47.476 9.519 47.3432 9.69191C47.2104 9.86482 47.1139 10.0627 47.0593 10.2738C47.0047 10.4849 46.9931 10.7048 47.0254 10.9204H47.0216ZM39.4157 11.1588H43.5594C43.7463 9.73349 43.1894 9.06821 41.8889 9.1629C41.337 9.24595 40.8173 9.47466 40.3832 9.82548C39.9492 10.1763 39.6165 10.6365 39.4194 11.1588H39.4157ZM63.0189 22.567C57.7688 19.9808 60.5383 10.5252 67.3565 10.3819C76.9442 11.6824 74.8785 27.1021 65.25 27.9926C63.4252 27.7864 61.6794 27.1326 60.1679 26.0894C58.8835 25.5177 57.4824 25.2571 56.0784 25.3286L58.5565 23.0437C60.1147 24.8024 62.2903 25.8931 64.6314 26.0894C72.9363 24.4072 74.1747 15.3332 67.9776 14.2859C63.2856 14.833 61.4335 17.4514 63.0201 22.5682L63.0189 22.567ZM81.9116 16.7634L86.7369 16.9067C85.8652 13.0187 86.8517 8.37247 89.1496 8.54414C93.2921 8.85167 88.4087 23.1746 80.6744 27.6875C78.4358 28.0111 76.5602 27.6628 75.4774 25.8349C78.7729 22.2632 80.4879 18.6148 80.0557 14.4724C79.836 12.3728 81.2658 10.2436 82.4697 10.4819C83.9328 10.7722 83.129 14.0932 81.9116 16.7536V16.7634ZM53.099 30.5529H49.5047C49.9506 28.4838 50.8385 26.5357 52.1075 24.842C53.5113 23.0756 55.2355 21.5898 57.1897 20.4624C56.4032 15.4333 57.2934 11.4305 60.3494 8.8529C62.0853 7.2675 64.204 6.16168 66.497 5.64431C68.7901 5.12694 71.1782 5.21587 73.4264 5.90235C76.6079 4.44251 77.1455 2.47506 75.039 0H82.5981C82.5158 3.71176 80.4505 6.0279 76.4022 6.94843V7.80556L78.2604 9.51982C80.5731 5.34657 83.4241 3.85586 87.0616 6.28398C106.708 -3.64341 93.7292 41.4362 72.8054 28.0828C71.8295 29.0248 70.6548 29.7358 69.3677 30.1633C68.0806 30.5908 66.7139 30.724 65.3686 30.5529C62.1237 30.601 59.2319 28.4434 56.939 27.4121C56.4705 27.2814 55.9774 27.2653 55.5013 27.3651C55.0252 27.4649 54.58 27.6777 54.2034 27.9856C53.8267 28.2935 53.5295 28.6874 53.3369 29.1342C53.1443 29.581 53.0618 30.0675 53.0965 30.5529H53.099ZM107.372 11.1476H111.516C111.701 9.72238 111.144 9.05709 109.845 9.15178C109.293 9.23471 108.773 9.46338 108.339 9.81421C107.905 10.165 107.572 10.6253 107.376 11.1476H107.372ZM114.985 10.9093H118.14C118.428 9.61122 117.83 8.75656 116.411 9.05668C116.195 9.08116 115.985 9.14905 115.796 9.25628C115.606 9.36351 115.439 9.50789 115.307 9.6808C115.174 9.85371 115.077 10.0516 115.023 10.2627C114.968 10.4737 114.957 10.6936 114.989 10.9093H114.985ZM103.79 13.7129H118.391C123.09 15.106 120.6 21.0318 116.35 21.0306C112.038 21.0306 111.255 18.4653 114.06 14.6157L109.915 14.6638C109.877 18.2332 107.561 20.807 103.296 20.9836C98.2916 21.1887 98.436 15.6457 103.79 13.7129ZM98.4706 11.1476L102.428 11.1958C103.687 5.71461 110.987 3.40259 113.813 7.34736C116.864 4.46474 121.345 4.71915 123.588 7.82285V11.1476H121.612L121.674 11.8603C127.741 14.1562 122.271 26.1079 114.436 26.2092C111.502 26.2462 109.814 25.4805 108.991 23.3117C108.169 24.3868 107.097 25.2435 105.867 25.8067C104.637 26.3699 103.288 26.6222 101.938 26.5414C93.7959 26.0301 93.1476 17.7861 99.4683 13.7598L97.0543 13.7116L98.4706 11.1476ZM65.9847 21.553C64.7858 21.2541 64.6747 20.0413 65.1488 18.8692C65.2543 18.426 65.5073 18.0317 65.8663 17.7512C66.2252 17.4707 66.6689 17.3206 67.1244 17.3254C68.5369 17.4057 68.5591 18.2159 68.2356 19.672C67.9652 20.9071 67.1491 21.842 65.9773 21.5481L65.9847 21.553ZM30.4959 11.1427L34.4557 11.1909C35.7152 5.70968 43.0137 3.39764 45.84 7.34242C48.891 4.45979 53.3719 4.71422 55.6154 7.81792V11.1427H53.6398L53.7003 11.8553C59.7678 14.1513 54.2992 26.1029 46.4623 26.2042C43.531 26.2413 41.8419 25.4755 41.0184 23.3068C40.1972 24.3817 39.1245 25.2385 37.8947 25.8016C36.6649 26.3648 35.3157 26.6171 33.9655 26.5364C25.8249 26.0251 25.1742 17.7811 31.4961 13.7548L29.0834 13.7067L30.4959 11.1427Z" fill="white"/>
<path d="M2.05859 78.0937C2.5633 78.3951 3.13815 78.5591 3.72592 78.5692C4.41755 78.5692 4.78313 78.2432 4.78313 77.7442C4.78313 77.2798 4.46572 77.0032 3.67158 76.6858C3.1654 76.559 2.71355 76.2724 2.38298 75.8687C2.05241 75.4649 1.86071 74.9654 1.83628 74.4442C1.83578 74.1244 1.90251 73.8081 2.03214 73.5158C2.16178 73.2235 2.35141 72.9617 2.58875 72.7474C2.8261 72.5331 3.10584 72.3711 3.40983 72.2719C3.71382 72.1727 4.03527 72.1386 4.35332 72.1717C4.94261 72.1553 5.52668 72.286 6.05277 72.552L5.72053 73.9254C5.29513 73.6903 4.81715 73.5667 4.33109 73.566C3.67528 73.566 3.36281 73.9118 3.36281 74.2984C3.36281 74.7788 3.73333 74.9913 4.59787 75.363C5.17364 75.5251 5.6665 75.8996 5.97701 76.4108C6.28752 76.922 6.39257 77.532 6.27095 78.1177C6.14934 78.7033 5.81012 79.2211 5.32173 79.5664C4.83335 79.9117 4.23216 80.059 3.63947 79.9784C2.98314 79.9833 2.33632 79.8214 1.7597 79.5079L2.05859 78.0937Z" fill="white"/>
<path d="M8.88059 77.9161L8.4114 79.8601H6.85193L8.88308 72.2891H10.8512L12.9219 79.8601H11.3007L10.7883 77.9161H8.88059ZM10.571 76.6415L10.1561 75.0359C10.0413 74.5875 9.92396 74.0206 9.82147 73.5773H9.80049C9.70294 74.0231 9.60292 74.5974 9.49549 75.0371L9.09792 76.6427L10.571 76.6415Z" fill="white"/>
<path d="M13.8136 79.8613V72.2891H15.5657L16.9474 75.0667C17.3623 75.9084 17.7256 76.7745 18.0352 77.6604H18.0611C17.9685 76.66 17.9376 75.6423 17.9376 74.4974V72.2891H19.3181V79.8601H17.7425L16.3164 76.9453C15.9201 76.1289 15.483 75.1582 15.1607 74.2714H15.1274C15.1743 75.2743 15.1928 76.3451 15.1928 77.5814V79.8564L13.8136 79.8613Z" fill="white"/>
<path d="M22.164 77.9161L21.6948 79.8601H20.139L22.1702 72.2891H24.1383L26.209 79.8601H24.5878L24.0754 77.9161H22.164ZM23.8543 76.6415L23.4395 75.0359C23.3246 74.5875 23.2073 74.0206 23.1049 73.5773H23.0839C22.9863 74.0231 22.8863 74.5974 22.7789 75.0371L22.3813 76.6427L23.8543 76.6415Z" fill="white"/>
<path d="M27.1463 78.0937C27.651 78.3951 28.2259 78.5591 28.8136 78.5692C29.5052 78.5692 29.8708 78.2432 29.8708 77.7442C29.8708 77.2798 29.5534 77.0032 28.7593 76.6858C28.2531 76.559 27.8013 76.2724 27.4707 75.8687C27.1401 75.4649 26.9484 74.9654 26.924 74.4442C26.9235 74.1244 26.9902 73.8081 27.1198 73.5158C27.2495 73.2235 27.4391 72.9617 27.6765 72.7474C27.9138 72.5331 28.1935 72.3711 28.4975 72.2719C28.8015 72.1727 29.123 72.1386 29.441 72.1717C30.0303 72.1553 30.6144 72.286 31.1405 72.552L30.8082 73.9254C30.3828 73.6903 29.9049 73.5667 29.4188 73.566C28.763 73.566 28.4505 73.9118 28.4505 74.2984C28.4505 74.7788 28.821 74.9913 29.6856 75.363C30.2613 75.5251 30.7542 75.8996 31.0647 76.4108C31.3752 76.922 31.4803 77.532 31.3587 78.1177C31.237 78.7033 30.8978 79.2211 30.4095 79.5664C29.9211 79.9117 29.3199 80.059 28.7272 79.9784C28.0708 79.9833 27.424 79.8214 26.8474 79.5079L27.1463 78.0937Z" fill="white"/>
<path d="M33.967 77.9161L33.4978 79.8601H31.942L33.9732 72.2891H35.9414L38.012 79.8601H36.3933L35.8809 77.9161H33.967ZM35.6574 76.6415L35.2425 75.0359C35.1277 74.5875 35.0104 74.0206 34.9079 73.5773H34.8869C34.7894 74.0231 34.6893 74.5974 34.5819 75.0371L34.1843 76.6427L35.6574 76.6415Z" fill="white"/>
<path d="M46.4485 79.5118C45.7377 79.7806 44.9858 79.9243 44.226 79.9367C43.7286 79.9727 43.2292 79.9006 42.7623 79.7254C42.2953 79.5501 41.8718 79.2759 41.5207 78.9215C40.8727 78.1535 40.5369 77.17 40.5798 76.166C40.5351 75.6487 40.6014 75.1278 40.7744 74.6382C40.9474 74.1487 41.223 73.7017 41.5828 73.3274C41.9426 72.9532 42.3783 72.6601 42.8606 72.4681C43.3428 72.276 43.8606 72.1893 44.3791 72.2138C45.0161 72.1916 45.6497 72.3158 46.2312 72.5769L45.9164 73.9478C45.4339 73.7167 44.9025 73.6065 44.368 73.6267C44.0541 73.6158 43.7415 73.6737 43.4523 73.7964C43.1631 73.9191 42.9043 74.1036 42.6939 74.337C42.4836 74.5703 42.3268 74.8469 42.2346 75.1473C42.1424 75.4477 42.1171 75.7646 42.1603 76.0758C42.1603 77.6394 43.0246 78.5547 44.2594 78.5547C44.5109 78.5683 44.7626 78.5322 45.0002 78.4484V76.8577H43.9717V75.5225H46.4535L46.4485 79.5118Z" fill="white"/>
<path d="M51.5767 76.6587H49.1276V78.4643H51.8657V79.8661H47.6233V72.2891H51.7237V73.6909H49.1301V75.268H51.5792L51.5767 76.6587Z" fill="white"/>
<path d="M52.894 79.8613V72.2891H54.6461L56.0278 75.0667C56.4426 75.9085 56.8058 76.7746 57.1156 77.6604H57.1415C57.0489 76.66 57.018 75.6423 57.018 74.4974V72.2891H58.3985V79.8601H56.8229L55.3968 76.9453C55.0005 76.1289 54.5633 75.1582 54.2411 74.2714H54.2077C54.2547 75.2743 54.2732 76.3451 54.2732 77.5814V79.8564L52.894 79.8613Z" fill="white"/>
<path d="M63.6571 76.6587H61.208V78.4643H63.9461V79.8661H59.7037V72.2891H63.804V73.6909H61.2104V75.268H63.6595L63.6571 76.6587Z" fill="white"/>
<path d="M64.9719 72.3954C65.632 72.2813 66.3011 72.2267 66.971 72.2323C67.7385 72.1563 68.5067 72.3704 69.1243 72.8326C69.3353 73.0371 69.4997 73.2848 69.6062 73.5587C69.7128 73.8326 69.759 74.1262 69.7417 74.4196C69.7494 74.8106 69.6422 75.1951 69.4335 75.5258C69.2248 75.8564 68.9237 76.1185 68.5675 76.2796V76.3154C68.813 76.4675 69.0207 76.6736 69.1747 76.918C69.3288 77.1624 69.4251 77.4387 69.4565 77.7259C69.6615 78.5817 69.8627 79.5686 69.9936 79.8625H68.4539C68.2507 79.2885 68.0975 78.698 67.9958 78.0976C67.8106 77.1515 67.5315 76.8984 66.9117 76.8897H66.4647V79.8625H64.9732L64.9719 72.3954ZM66.4635 75.651H67.0524C67.2048 75.6696 67.3594 75.655 67.5056 75.6082C67.6518 75.5615 67.7862 75.4836 67.8995 75.38C68.0128 75.2764 68.1024 75.1495 68.162 75.008C68.2217 74.8666 68.2501 74.7139 68.2452 74.5604C68.2574 74.4145 68.2367 74.2677 68.1847 74.1309C68.1327 73.994 68.0506 73.8705 67.9446 73.7696C67.8386 73.6686 67.7112 73.5928 67.572 73.5475C67.4328 73.5023 67.2852 73.4888 67.1401 73.5082C66.9131 73.4996 66.6858 73.5191 66.4635 73.5662V75.651Z" fill="white"/>
<path d="M72.4546 77.9161L71.9854 79.8601H70.4296L72.4607 72.2891H74.4289L76.4995 79.8601H74.8796L74.3684 77.9161H72.4546ZM74.1449 76.6415L73.7301 75.0359C73.6165 74.5875 73.4979 74.0206 73.3955 73.5773H73.3745C73.2769 74.0231 73.1769 74.5974 73.0695 75.0371L72.6719 76.6427L74.1449 76.6415Z" fill="white"/>
<path d="M77.3865 72.2891H78.892V78.4248H81.54V79.86H77.3877L77.3865 72.2891Z" fill="white"/>
<path d="M85.9284 72.2903H84.4229V79.8612H85.9284V72.2903Z" fill="white"/>
<path d="M87.2355 79.8613V72.2891H88.9876L90.3693 75.0667C90.7837 75.9085 91.1465 76.7746 91.4559 77.6604H91.4818C91.3892 76.66 91.3583 75.6423 91.3583 74.4974V72.2891H92.74V79.8601H91.1645L89.7384 76.9453C89.342 76.1289 88.9049 75.1582 88.5826 74.2714H88.5493C88.5962 75.2743 88.6147 76.3451 88.6147 77.5814V79.8564L87.2355 79.8613Z" fill="white"/>
<path d="M94.0909 78.0937C94.5956 78.3951 95.1705 78.5591 95.7582 78.5692C96.4499 78.5692 96.8154 78.2432 96.8154 77.7442C96.8154 77.2798 96.498 77.0032 95.7039 76.6858C95.1975 76.5592 94.7454 76.2728 94.4146 75.869C94.0837 75.4652 93.8919 74.9656 93.8674 74.4442C93.8669 74.1244 93.9336 73.8081 94.0632 73.5158C94.1928 73.2235 94.3825 72.9617 94.6198 72.7474C94.8572 72.5331 95.1369 72.3711 95.4409 72.2719C95.7449 72.1727 96.0663 72.1386 96.3844 72.1717C96.9737 72.1554 97.5577 72.2861 98.0838 72.552L97.7516 73.9254C97.3262 73.6904 96.8482 73.5668 96.3622 73.566C95.7063 73.566 95.3939 73.9118 95.3939 74.2984C95.3939 74.7788 95.7644 74.9913 96.6289 75.363C97.2047 75.5251 97.6976 75.8996 98.0081 76.4108C98.3186 76.922 98.4237 77.532 98.302 78.1177C98.1804 78.7033 97.8412 79.2211 97.3528 79.5664C96.8644 79.9117 96.2632 80.059 95.6705 79.9784C95.0142 79.9833 94.3674 79.8214 93.7908 79.5079L94.0909 78.0937Z" fill="white"/>
<path d="M100.87 72.2891V76.6426C100.87 77.9505 101.312 78.6187 102.075 78.6187C102.865 78.6187 103.3 77.9851 103.3 76.6426V72.2891H104.805V76.5376C104.805 78.8731 103.767 79.9834 102.026 79.9834C100.346 79.9834 99.366 78.9225 99.366 76.5179V72.2891H100.87Z" fill="white"/>
<path d="M106.105 72.3954C106.765 72.2813 107.434 72.2267 108.104 72.2323C108.872 72.1563 109.64 72.3704 110.258 72.8326C110.469 73.0371 110.633 73.2848 110.739 73.5587C110.846 73.8326 110.892 74.1262 110.875 74.4196C110.882 74.8105 110.775 75.1951 110.567 75.5256C110.358 75.8562 110.057 76.1184 109.701 76.2796V76.3154C109.946 76.4675 110.154 76.6736 110.308 76.918C110.462 77.1623 110.558 77.4386 110.59 77.7259C110.796 78.5817 110.996 79.5686 111.127 79.8625H109.587C109.384 79.2885 109.231 78.698 109.129 78.0976C108.944 77.1515 108.665 76.8984 108.045 76.8897H107.593V79.8625H106.103L106.105 72.3954ZM107.595 75.651H108.184C108.337 75.6696 108.491 75.655 108.638 75.6082C108.784 75.5615 108.918 75.4836 109.032 75.38C109.145 75.2764 109.234 75.1495 109.294 75.008C109.354 74.8666 109.382 74.7139 109.377 74.5604C109.389 74.4146 109.368 74.2679 109.316 74.1311C109.264 73.9944 109.182 73.871 109.076 73.7701C108.97 73.6692 108.843 73.5933 108.704 73.548C108.565 73.5027 108.417 73.4891 108.272 73.5082C108.045 73.4995 107.817 73.519 107.594 73.5662L107.595 75.651Z" fill="white"/>
<path d="M113.588 77.9161L113.119 79.8601H111.563L113.594 72.2891H115.562L117.634 79.8601H116.013L115.502 77.9161H113.588ZM115.278 76.6415L114.863 75.0359C114.748 74.5875 114.631 74.0206 114.529 73.5773H114.508C114.41 74.0231 114.31 74.5974 114.203 75.0371L113.805 76.6427L115.278 76.6415Z" fill="white"/>
<path d="M118.52 79.8613V72.2891H120.277L121.659 75.0667C122.074 75.9085 122.437 76.7746 122.747 77.6604H122.773C122.68 76.66 122.649 75.6423 122.649 74.4974V72.2891H124.03V79.8601H122.45L121.024 76.9453C120.628 76.1289 120.191 75.1582 119.869 74.2714H119.835C119.882 75.2743 119.901 76.3451 119.901 77.5814V79.8564L118.52 79.8613Z" fill="white"/>
<path d="M130.209 79.6525C129.674 79.8879 129.093 79.9994 128.509 79.9786C128.02 79.9951 127.532 79.9057 127.081 79.7164C126.629 79.5271 126.223 79.2425 125.892 78.882C125.56 78.5215 125.311 78.0936 125.16 77.6276C125.009 77.1616 124.96 76.6685 125.017 76.182C124.963 75.6737 125.016 75.1596 125.174 74.6734C125.332 74.1873 125.591 73.7401 125.935 73.3613C126.278 72.9825 126.697 72.6807 127.166 72.4757C127.634 72.2706 128.14 72.1671 128.651 72.1718C129.216 72.1469 129.779 72.2623 130.288 72.5077L129.982 73.8662C129.588 73.6751 129.155 73.5778 128.718 73.5822C127.531 73.5822 126.6 74.4047 126.6 76.0881C126.6 77.606 127.387 78.5583 128.726 78.5583C129.158 78.5605 129.585 78.4765 129.983 78.3112L130.209 79.6525Z" fill="white"/>
<path d="M135.155 76.6587H132.706V78.4643H135.444V79.8661H131.202V72.2891H135.302V73.6909H132.709V75.268H135.158L135.155 76.6587Z" fill="white"/>
<path d="M6.07201 61.7096V62.9446H7.25984V63.7758H6.07201V64.4094C6.08959 64.703 6.0414 64.9969 5.93096 65.2695C5.82052 65.5421 5.65062 65.7867 5.43365 65.9853C5.01049 66.3363 4.47146 66.5165 3.92234 66.4904C3.42126 66.5124 2.92996 66.3469 2.54437 66.026C2.3477 65.8443 2.19368 65.6212 2.09334 65.3729C1.99301 65.1246 1.94886 64.8571 1.96404 64.5897C1.96511 64.2503 2.06602 63.9187 2.25421 63.6362C2.42048 63.3602 2.67759 63.1506 2.98146 63.0434V60.8809H7.59445V61.712L6.07201 61.7096ZM4.92618 63.7733H3.60253C3.48612 63.756 3.36727 63.766 3.25538 63.8025C3.14348 63.839 3.0416 63.901 2.95778 63.9837C2.87396 64.0663 2.81049 64.1673 2.77239 64.2787C2.73428 64.3901 2.72259 64.5088 2.73822 64.6255C2.73822 65.2743 3.10165 65.5991 3.8285 65.5999C4.56934 65.5999 4.9377 65.1986 4.93359 64.3958L4.92618 63.7733ZM4.92618 61.7096H3.73836V62.9446H4.92618V61.7096Z" fill="white"/>
<path d="M6.07201 61.7096V62.9446H7.25984V63.7758H6.07201V64.4094C6.08959 64.703 6.0414 64.9969 5.93096 65.2695C5.82052 65.5421 5.65062 65.7867 5.43365 65.9853C5.01049 66.3363 4.47146 66.5165 3.92234 66.4904C3.42126 66.5124 2.92996 66.3469 2.54437 66.026C2.3477 65.8443 2.19368 65.6212 2.09334 65.3729C1.99301 65.1246 1.94886 64.8571 1.96404 64.5897C1.96511 64.2503 2.06602 63.9187 2.25421 63.6362C2.42048 63.3602 2.67759 63.1506 2.98146 63.0434V60.8809H7.59445V61.712L6.07201 61.7096ZM4.92618 63.7733H3.60253C3.48612 63.756 3.36727 63.766 3.25538 63.8025C3.14348 63.839 3.0416 63.901 2.95778 63.9837C2.87396 64.0663 2.81049 64.1673 2.77239 64.2787C2.73428 64.3901 2.72259 64.5088 2.73822 64.6255C2.73822 65.2743 3.10165 65.5991 3.8285 65.5999C4.56934 65.5999 4.9377 65.1986 4.93359 64.3958L4.92618 63.7733ZM4.92618 61.7096H3.73836V62.9446H4.92618V61.7096Z" stroke="white" stroke-width="0.25" stroke-miterlimit="10"/>
<path d="M18.9179 61.6984V66.4656H17.7622V61.6984H17.3115C17.0055 61.6878 16.6997 61.7227 16.404 61.8021C16.66 62.0939 16.8555 62.4335 16.9794 62.8013C17.118 63.1691 17.1919 63.5581 17.1979 63.9511C17.1979 65.6546 16.7185 66.5068 15.7595 66.5076C15.4989 66.5022 15.2471 66.412 15.0424 66.2507C14.8376 66.0893 14.691 65.8656 14.6247 65.6134C14.4468 65.1205 14.363 64.5985 14.3778 64.0746C14.3794 63.6896 14.433 63.3066 14.5371 62.9359C14.631 62.5599 14.7989 62.2064 15.031 61.896C14.7956 61.7621 14.5287 61.6939 14.258 61.6984C14.0053 61.6891 13.7532 61.7311 13.5172 61.8219C14.0649 62.3947 14.3637 63.1611 14.3482 63.9536C14.3482 65.653 13.8707 66.5031 12.9159 66.5039C12.6524 66.4973 12.3984 66.4047 12.1926 66.2401C11.9868 66.0755 11.8406 65.848 11.7762 65.5925C11.5993 65.1052 11.5156 64.5891 11.5292 64.0709C11.4869 63.3038 11.7087 62.5453 12.1577 61.9219C11.8165 61.7263 11.4272 61.63 11.0341 61.6441C10.7856 61.6349 10.5378 61.6747 10.3047 61.7614C10.0717 61.8481 9.858 61.9798 9.67591 62.1492C9.30976 62.5136 9.08112 62.9937 9.0289 63.5077C9.13238 63.306 9.28868 63.1361 9.48113 63.0163C9.67358 62.8964 9.89497 62.8311 10.1216 62.8272C10.342 62.8202 10.5605 62.8698 10.7564 62.9712C10.9522 63.0726 11.1188 63.2224 11.2403 63.4065C11.4927 63.7861 11.6197 64.2353 11.6033 64.6909C11.6171 65.1475 11.4698 65.5943 11.1872 65.9531C11.0582 66.1273 10.8893 66.2682 10.6946 66.3638C10.5 66.4594 10.2853 66.507 10.0685 66.5027C9.73337 66.5018 9.40645 66.3987 9.13135 66.2071C8.85626 66.0156 8.64608 65.7448 8.52883 65.4307C8.32209 64.948 8.2259 64.4252 8.24731 63.9005C8.22316 63.0937 8.50552 62.3077 9.03755 61.7009C9.28272 61.4147 9.58826 61.1863 9.93221 61.0324C10.2762 60.8784 10.65 60.8026 11.0267 60.8104C11.6692 60.774 12.3073 60.9366 12.8541 61.276C13.2985 60.975 13.8251 60.8184 14.3617 60.8277C14.5984 60.835 14.8331 60.8741 15.0594 60.9438C15.3041 61.0026 15.5353 61.1074 15.7409 61.2526C16.283 60.9667 16.8921 60.8323 17.5042 60.8635H19.6822V61.6959L18.9179 61.6984ZM10.1982 64.0623C10.1729 63.9946 10.1289 63.9356 10.0715 63.8919C10.014 63.8482 9.94536 63.8216 9.87345 63.8153C9.60345 63.8153 9.46847 64.0898 9.46847 64.639C9.46444 64.8489 9.49702 65.0578 9.56476 65.2565C9.65696 65.4945 9.79527 65.6134 9.97965 65.6134C10.1105 65.6134 10.2143 65.5134 10.2883 65.3146C10.3425 65.1555 10.3696 64.9886 10.3686 64.8206C10.3737 64.5554 10.3152 64.2928 10.1982 64.0548V64.0623ZM12.7331 62.4345C12.4248 62.9426 12.2728 63.5301 12.296 64.124C12.296 65.0099 12.4401 65.4529 12.7282 65.4529C13.0369 65.4529 13.1912 64.9556 13.1912 63.961C13.2212 63.4143 13.0592 62.8743 12.7331 62.4345ZM15.6076 62.3999C15.2814 62.9101 15.1186 63.5077 15.1409 64.1129C15.1409 65.0062 15.2911 65.4529 15.5915 65.4529C15.892 65.4529 16.0422 64.9556 16.0422 63.961C16.0817 63.4061 15.9281 62.8546 15.6076 62.3999Z" fill="white"/>
<path d="M18.9179 61.6984V66.4656H17.7622V61.6984H17.3115C17.0055 61.6878 16.6997 61.7227 16.404 61.8021C16.66 62.0939 16.8555 62.4335 16.9794 62.8013C17.118 63.1691 17.1919 63.5581 17.1979 63.9511C17.1979 65.6546 16.7185 66.5068 15.7595 66.5076C15.4989 66.5022 15.2471 66.412 15.0424 66.2507C14.8376 66.0893 14.691 65.8656 14.6247 65.6134C14.4468 65.1205 14.363 64.5985 14.3778 64.0746C14.3794 63.6896 14.433 63.3066 14.5371 62.9359C14.631 62.5599 14.7989 62.2064 15.031 61.896C14.7956 61.7621 14.5287 61.6939 14.258 61.6984C14.0053 61.6891 13.7532 61.7311 13.5172 61.8219C14.0649 62.3947 14.3637 63.1611 14.3482 63.9536C14.3482 65.653 13.8707 66.5031 12.9159 66.5039C12.6524 66.4973 12.3984 66.4047 12.1926 66.2401C11.9868 66.0755 11.8406 65.848 11.7762 65.5925C11.5993 65.1052 11.5156 64.5891 11.5292 64.0709C11.4869 63.3038 11.7087 62.5453 12.1577 61.9219C11.8165 61.7263 11.4272 61.63 11.0341 61.6441C10.7856 61.6349 10.5378 61.6747 10.3047 61.7614C10.0717 61.8481 9.858 61.9798 9.67591 62.1492C9.30976 62.5136 9.08112 62.9937 9.0289 63.5077C9.13238 63.306 9.28868 63.1361 9.48113 63.0163C9.67358 62.8964 9.89497 62.8311 10.1216 62.8272C10.342 62.8202 10.5605 62.8698 10.7564 62.9712C10.9522 63.0726 11.1188 63.2224 11.2403 63.4065C11.4927 63.7861 11.6197 64.2353 11.6033 64.6909C11.6171 65.1475 11.4698 65.5943 11.1872 65.9531C11.0582 66.1273 10.8893 66.2682 10.6946 66.3638C10.5 66.4594 10.2853 66.507 10.0685 66.5027C9.73337 66.5018 9.40645 66.3987 9.13135 66.2071C8.85626 66.0156 8.64608 65.7448 8.52883 65.4307C8.32209 64.948 8.2259 64.4252 8.24731 63.9005C8.22316 63.0937 8.50552 62.3077 9.03755 61.7009C9.28272 61.4147 9.58826 61.1863 9.93221 61.0324C10.2762 60.8784 10.65 60.8026 11.0267 60.8104C11.6692 60.774 12.3073 60.9366 12.8541 61.276C13.2985 60.975 13.8251 60.8184 14.3617 60.8277C14.5984 60.835 14.8331 60.8741 15.0594 60.9438C15.3041 61.0026 15.5353 61.1074 15.7409 61.2526C16.283 60.9667 16.8921 60.8323 17.5042 60.8635H19.6822V61.6959L18.9179 61.6984ZM10.1982 64.0623C10.1729 63.9946 10.1289 63.9356 10.0715 63.8919C10.014 63.8482 9.94536 63.8216 9.87345 63.8153C9.60345 63.8153 9.46847 64.0898 9.46847 64.639C9.46444 64.8489 9.49702 65.0578 9.56476 65.2565C9.65696 65.4945 9.79527 65.6134 9.97965 65.6134C10.1105 65.6134 10.2143 65.5134 10.2883 65.3146C10.3425 65.1555 10.3696 64.9886 10.3686 64.8206C10.3725 64.5579 10.3141 64.298 10.1982 64.0623V64.0623ZM12.7331 62.4419C12.4248 62.95 12.2728 63.5375 12.296 64.1314C12.296 65.0173 12.4401 65.4603 12.7282 65.4603C13.0369 65.4603 13.1912 64.963 13.1912 63.9684C13.2212 63.4217 13.0592 62.8817 12.7331 62.4419V62.4419ZM15.6076 62.4073C15.2814 62.9175 15.1186 63.5151 15.1409 64.1203C15.1409 65.0136 15.2911 65.4603 15.5915 65.4603C15.892 65.4603 16.0422 64.963 16.0422 63.9684C16.0828 63.4118 15.9292 62.8584 15.6076 62.4024V62.4073Z" stroke="white" stroke-width="0.25" stroke-miterlimit="10"/>
<path d="M24.388 61.7096V62.9446H25.5759V63.7758H24.388V64.4094C24.4056 64.703 24.3574 64.9968 24.247 65.2695C24.1365 65.5421 23.9666 65.7867 23.7497 65.9853C23.3266 66.3364 22.7875 66.5166 22.2383 66.4904C21.7372 66.5124 21.2459 66.3468 20.8604 66.026C20.6637 65.8442 20.5097 65.6212 20.4093 65.3729C20.309 65.1245 20.2648 64.8571 20.28 64.5897C20.2811 64.2503 20.382 63.9187 20.5702 63.6362C20.7364 63.3601 20.9935 63.1505 21.2975 63.0434V60.8809H25.9105V61.712L24.388 61.7096ZM23.2422 63.7733H21.9124C21.7959 63.756 21.6771 63.766 21.5652 63.8025C21.4533 63.839 21.3514 63.901 21.2676 63.9837C21.1838 64.0663 21.1203 64.1673 21.0822 64.2787C21.0441 64.3901 21.0324 64.5088 21.048 64.6255C21.048 65.2743 21.411 65.5991 22.1371 65.5999C22.8779 65.5999 23.2484 65.1986 23.2484 64.3958L23.2422 63.7733ZM23.2422 61.7096H22.0543V62.9446H23.2422V61.7096Z" fill="white"/>
<path d="M24.388 61.7096V62.9446H25.5759V63.7758H24.388V64.4094C24.4056 64.703 24.3574 64.9968 24.247 65.2695C24.1365 65.5421 23.9666 65.7867 23.7497 65.9853C23.3266 66.3364 22.7875 66.5166 22.2383 66.4904C21.7372 66.5124 21.2459 66.3468 20.8604 66.026C20.6637 65.8442 20.5097 65.6212 20.4093 65.3729C20.309 65.1245 20.2648 64.8571 20.28 64.5897C20.2811 64.2503 20.382 63.9187 20.5702 63.6362C20.7364 63.3601 20.9935 63.1505 21.2975 63.0434V60.8809H25.9105V61.712L24.388 61.7096ZM23.2422 63.7733H21.9124C21.7959 63.756 21.6771 63.766 21.5652 63.8025C21.4533 63.839 21.3514 63.901 21.2676 63.9837C21.1838 64.0663 21.1203 64.1673 21.0822 64.2787C21.0441 64.3901 21.0324 64.5088 21.048 64.6255C21.048 65.2743 21.411 65.5991 22.1371 65.5999C22.8779 65.5999 23.2484 65.1986 23.2484 64.3958L23.2422 63.7733ZM23.2422 61.7096H22.0543V62.9446H23.2422V61.7096Z" stroke="white" stroke-width="0.25" stroke-miterlimit="10"/>
<path d="M38.2455 66.4671V62.5062C38.3338 61.5107 38.0447 60.5183 37.4355 59.726C37.2669 59.5591 37.0649 59.4297 36.8427 59.3465C36.6205 59.2633 36.3832 59.228 36.1465 59.2431C35.818 59.2432 35.4959 59.3341 35.2158 59.5056C34.9356 59.6771 34.7082 59.9226 34.5586 60.2151C34.198 60.8441 34.0173 61.5603 34.0363 62.2851C34.0363 64.0842 34.3878 65.1406 35.0908 65.4543C34.855 65.1001 34.7343 64.6817 34.745 64.2563C34.7278 63.7994 34.875 63.3515 35.1599 62.994C35.296 62.8253 35.4693 62.6903 35.6661 62.5995C35.8629 62.5086 36.078 62.4645 36.2946 62.4704C36.5254 62.4626 36.7549 62.508 36.9654 62.6031C37.1758 62.6982 37.3616 62.8404 37.5084 63.0187C37.8148 63.4034 37.9718 63.8859 37.9504 64.3773C37.9601 64.6594 37.9101 64.9403 37.8037 65.2016C37.6974 65.463 37.537 65.6989 37.3331 65.894C37.1448 66.0805 36.9211 66.2272 36.675 66.3255C36.4289 66.4237 36.1656 66.4714 35.9008 66.4658C33.9441 66.4658 32.9658 65.0895 32.9658 62.337C32.883 61.6381 33.0009 60.9301 33.3057 60.2958C33.6106 59.6615 34.0897 59.1271 34.687 58.7553C35.1291 58.5042 35.627 58.3679 36.1354 58.3588C36.5841 58.3401 37.0293 58.4446 37.4228 58.661C37.8164 58.8774 38.1432 59.1975 38.3678 59.5865C38.8251 60.4078 39.0465 61.3396 39.0074 62.2789V66.472L38.2455 66.4671ZM36.1465 63.4201H36.0736C35.9992 63.425 35.9273 63.4489 35.8648 63.4895C35.8023 63.5302 35.7514 63.5863 35.7168 63.6523C35.6084 63.8265 35.5546 64.0291 35.5624 64.234C35.557 64.4571 35.6102 64.6778 35.7168 64.8738C35.7595 64.9626 35.826 65.0378 35.9088 65.0912C35.9916 65.1446 36.0875 65.1741 36.186 65.1764H36.2391C36.5939 65.1336 36.7712 64.8137 36.7712 64.2168C36.7773 64.0193 36.7193 63.8252 36.6058 63.6635C36.5545 63.5865 36.4849 63.5236 36.4032 63.4805C36.3215 63.4374 36.2302 63.4153 36.1378 63.4164" fill="white"/>
<path d="M38.2455 66.4671V62.5062C38.3338 61.5107 38.0447 60.5183 37.4355 59.726C37.2669 59.5591 37.0649 59.4297 36.8427 59.3465C36.6205 59.2633 36.3832 59.228 36.1465 59.2431C35.818 59.2432 35.4959 59.3341 35.2158 59.5056C34.9356 59.6771 34.7082 59.9226 34.5586 60.2151C34.198 60.8441 34.0173 61.5603 34.0363 62.2851C34.0363 64.0842 34.3878 65.1406 35.0908 65.4543C34.855 65.1001 34.7343 64.6817 34.745 64.2563C34.7278 63.7994 34.875 63.3515 35.1599 62.994C35.296 62.8253 35.4693 62.6903 35.6661 62.5995C35.8629 62.5086 36.078 62.4645 36.2946 62.4704C36.5254 62.4626 36.7549 62.508 36.9654 62.6031C37.1758 62.6982 37.3616 62.8404 37.5084 63.0187C37.8148 63.4034 37.9718 63.8859 37.9504 64.3773C37.9601 64.6594 37.9101 64.9403 37.8037 65.2016C37.6974 65.463 37.537 65.6989 37.3331 65.894C37.1448 66.0805 36.9211 66.2272 36.675 66.3255C36.4289 66.4237 36.1656 66.4714 35.9008 66.4658C33.9441 66.4658 32.9658 65.0895 32.9658 62.337C32.883 61.6381 33.0009 60.9301 33.3057 60.2958C33.6106 59.6615 34.0897 59.1271 34.687 58.7553C35.1291 58.5042 35.627 58.3679 36.1354 58.3588C36.5841 58.3401 37.0293 58.4446 37.4228 58.661C37.8164 58.8774 38.1432 59.1975 38.3678 59.5865C38.8251 60.4078 39.0465 61.3396 39.0074 62.2789V66.472L38.2455 66.4671ZM36.1465 63.4201H36.0736C35.9992 63.425 35.9273 63.4489 35.8648 63.4895C35.8023 63.5302 35.7514 63.5863 35.7168 63.6523C35.6084 63.8265 35.5546 64.0291 35.5624 64.234C35.557 64.4571 35.6102 64.6778 35.7168 64.8738C35.7595 64.9626 35.826 65.0378 35.9088 65.0912C35.9916 65.1446 36.0875 65.1741 36.186 65.1764H36.2391C36.5939 65.1336 36.7712 64.8137 36.7712 64.2168C36.7773 64.0193 36.7193 63.8252 36.6058 63.6635C36.5546 63.5875 36.4854 63.5254 36.4044 63.4828C36.3234 63.4401 36.2331 63.4182 36.1415 63.4189L36.1465 63.4201Z" stroke="white" stroke-width="0.25" stroke-miterlimit="10"/>
<path d="M45.3166 65.4619H41.9828C41.8194 65.4404 41.6531 65.4572 41.4973 65.5112C41.3415 65.5651 41.2004 65.6545 41.0851 65.7724C40.9699 65.8904 40.8837 66.0335 40.8333 66.1905C40.783 66.3476 40.7698 66.5142 40.795 66.6772C40.795 67.452 41.1626 67.8398 41.8976 67.8406C42.1634 67.8628 42.4298 67.8062 42.6637 67.6779C42.8975 67.5497 43.0885 67.3554 43.2126 67.1193C43.4239 66.643 43.7039 66.2003 44.0436 65.8052C44.491 65.4982 45.0321 65.3583 45.5722 65.41C46.9222 65.41 47.5972 65.953 47.5972 67.039C47.6115 67.2796 47.5683 67.52 47.471 67.7404C47.3737 67.9608 47.2252 68.1548 47.0378 68.3062C46.6788 68.5742 46.2383 68.7099 45.7908 68.6903C45.362 68.712 44.9399 68.5772 44.6029 68.3112C44.432 68.1562 44.2982 67.9647 44.2114 67.7508C44.1246 67.537 44.0871 67.3064 44.1016 67.0761C44.1043 66.7762 44.2035 66.4852 44.3844 66.2461L45.2487 66.2054C45.0798 66.4782 44.9692 66.7831 44.924 67.1008C44.9092 67.2071 44.9194 67.3155 44.9538 67.4172C44.9881 67.5189 45.0457 67.6112 45.1219 67.6868C45.1981 67.7624 45.2908 67.8192 45.3928 67.8528C45.4947 67.8864 45.6031 67.8957 45.7093 67.8801C46.1941 67.8801 46.4365 67.6047 46.4365 67.0539C46.4365 66.5228 46.1307 66.2573 45.5191 66.2573C45.2188 66.2389 44.9185 66.2949 44.6449 66.4203C44.3726 66.611 44.1749 66.8903 44.0856 67.2107C44.0109 67.4706 43.885 67.713 43.7154 67.9236C43.5458 68.1342 43.3358 68.3088 43.0978 68.4371C42.6418 68.6305 42.1478 68.7179 41.6532 68.6928C41.1396 68.7168 40.6368 68.5396 40.2517 68.1988C40.0578 68.0062 39.9074 67.7742 39.8107 67.5186C39.714 67.2629 39.6733 66.9894 39.6912 66.7167C39.6912 65.3252 40.4357 64.6253 41.9248 64.6171H45.2993C45.5002 64.6329 45.7013 64.5888 45.8771 64.4903C46.053 64.3918 46.1957 64.2434 46.2871 64.0638C46.4465 63.6522 46.5156 63.2112 46.4896 62.7706C46.4896 62.079 46.1764 61.7332 45.55 61.7332C45.3875 61.7353 45.229 61.7842 45.0934 61.874C44.9579 61.9638 44.8511 62.0907 44.7857 62.2396C44.6195 62.5588 44.5366 62.9148 44.5449 63.2746V64.4022H43.1978V63.1078C43.2279 62.9145 43.2127 62.7169 43.1533 62.5305C43.0939 62.3441 42.9919 62.1741 42.8555 62.0339C42.7191 61.8937 42.5519 61.7872 42.3672 61.7228C42.1826 61.6584 41.9854 61.6378 41.7915 61.6628C41.5366 61.6545 41.2833 61.7043 41.0506 61.8085H41.1037C41.2774 61.7991 41.4511 61.8273 41.6128 61.8912C41.7746 61.9552 41.9206 62.0534 42.0409 62.179C42.2884 62.4595 42.4165 62.8256 42.3977 63.1992C42.3984 63.523 42.3159 63.8415 42.1582 64.1243C42.0941 64.2709 41.9941 64.3989 41.8674 64.4965C41.7407 64.5941 41.5914 64.658 41.4334 64.6825C41.2062 64.7097 41.0728 64.7233 41.0346 64.7233C40.8288 64.7342 40.6237 64.6911 40.4396 64.5984C40.2556 64.5057 40.0989 64.3665 39.985 64.1947C39.7601 63.8306 39.6507 63.4069 39.6714 62.9794C39.6581 62.6845 39.7083 62.3901 39.8187 62.1163C39.929 61.8425 40.0969 61.5956 40.311 61.3923C40.7189 61.0118 41.2612 60.8088 41.8186 60.8279C42.2564 60.7657 42.7029 60.8334 43.1026 61.0226C43.5023 61.2119 43.8377 61.5144 44.0671 61.8925C44.2254 61.5603 44.4783 61.2822 44.794 61.0931C45.1098 60.9041 45.4743 60.8126 45.8418 60.83C46.2094 60.8474 46.5636 60.973 46.8601 61.191C47.1566 61.409 47.3821 61.7098 47.5083 62.0556C47.5952 62.3183 47.6418 62.5927 47.6466 62.8695C47.6466 64.5985 46.867 65.4631 45.308 65.4631L45.3166 65.4619ZM41.3124 63.2585V63.2177C41.2696 62.923 41.1428 62.7756 40.9321 62.7756H40.8679C40.6497 62.7756 40.5407 62.9538 40.5407 63.3104C40.5395 63.4409 40.5745 63.5691 40.6419 63.6809C40.6649 63.7298 40.701 63.7715 40.746 63.8013C40.7911 63.8311 40.8435 63.848 40.8975 63.8501C41.1749 63.8501 41.3132 63.6854 41.3124 63.3561V63.2585Z" fill="white"/>
<path d="M45.3166 65.4619H41.9828C41.8194 65.4404 41.6532 65.4572 41.4973 65.5112C41.3415 65.5651 41.2004 65.6545 41.0851 65.7724C40.9699 65.8904 40.8837 66.0335 40.8333 66.1905C40.783 66.3476 40.7698 66.5142 40.795 66.6772C40.795 67.452 41.1626 67.8398 41.8976 67.8406C42.1634 67.8628 42.4298 67.8062 42.6637 67.6779C42.8975 67.5497 43.0885 67.3554 43.2126 67.1193C43.4239 66.643 43.7039 66.2003 44.0436 65.8052C44.491 65.4982 45.0321 65.3583 45.5722 65.41C46.9222 65.41 47.5972 65.953 47.5972 67.039C47.6116 67.2796 47.5683 67.52 47.471 67.7404C47.3737 67.9608 47.2252 68.1548 47.0378 68.3062C46.6788 68.5742 46.2383 68.7099 45.7908 68.6903C45.362 68.712 44.9399 68.5772 44.6029 68.3112C44.432 68.1562 44.2982 67.9647 44.2114 67.7508C44.1246 67.537 44.0871 67.3064 44.1016 67.0761C44.1043 66.7762 44.2035 66.4852 44.3844 66.2461L45.2487 66.2054C45.0798 66.4782 44.9692 66.7831 44.924 67.1008C44.9092 67.2071 44.9194 67.3155 44.9538 67.4172C44.9881 67.5189 45.0457 67.6112 45.1219 67.6868C45.1981 67.7624 45.2908 67.8192 45.3928 67.8528C45.4947 67.8864 45.6031 67.8957 45.7093 67.8801C46.1941 67.8801 46.4365 67.6047 46.4365 67.0539C46.4365 66.5228 46.1307 66.2573 45.5191 66.2573C45.2188 66.2389 44.9185 66.2949 44.6449 66.4203C44.3726 66.611 44.1749 66.8903 44.0856 67.2107C44.0109 67.4706 43.885 67.713 43.7154 67.9236C43.5458 68.1342 43.3358 68.3088 43.0978 68.4371C42.6418 68.6305 42.1478 68.7179 41.6532 68.6928C41.1396 68.7168 40.6368 68.5396 40.2517 68.1988C40.0578 68.0062 39.9074 67.7742 39.8107 67.5186C39.714 67.2629 39.6733 66.9894 39.6912 66.7167C39.6912 65.3252 40.4357 64.6253 41.9248 64.6171H45.2993C45.5002 64.6329 45.7013 64.5888 45.8771 64.4903C46.053 64.3918 46.1957 64.2434 46.2871 64.0638C46.4465 63.6522 46.5156 63.2112 46.4896 62.7706C46.4896 62.079 46.1764 61.7332 45.55 61.7332C45.3875 61.7353 45.229 61.7842 45.0934 61.874C44.9579 61.9638 44.8511 62.0907 44.7857 62.2396C44.6195 62.5588 44.5366 62.9148 44.5449 63.2746V64.4022H43.1978V63.1078C43.2279 62.9145 43.2127 62.7169 43.1533 62.5305C43.0939 62.3441 42.9919 62.1741 42.8555 62.0339C42.7191 61.8937 42.5519 61.7872 42.3672 61.7228C42.1826 61.6584 41.9854 61.6378 41.7915 61.6628C41.5367 61.6545 41.2833 61.7043 41.0506 61.8085H41.1037C41.2774 61.7991 41.4511 61.8273 41.6128 61.8912C41.7746 61.9552 41.9206 62.0534 42.0409 62.179C42.2884 62.4595 42.4165 62.8256 42.3977 63.1992C42.3984 63.523 42.3159 63.8415 42.1582 64.1243C42.0941 64.2709 41.9941 64.3989 41.8674 64.4965C41.7407 64.5941 41.5914 64.658 41.4334 64.6825C41.2062 64.7097 41.0728 64.7233 41.0346 64.7233C40.8288 64.7342 40.6237 64.6911 40.4396 64.5984C40.2556 64.5057 40.0989 64.3665 39.985 64.1947C39.7601 63.8306 39.6507 63.4069 39.6714 62.9794C39.6581 62.6845 39.7083 62.3901 39.8187 62.1163C39.929 61.8425 40.0969 61.5956 40.311 61.3923C40.7189 61.0118 41.2612 60.8088 41.8186 60.8279C42.2564 60.7657 42.7029 60.8334 43.1026 61.0226C43.5023 61.2119 43.8377 61.5144 44.0671 61.8925C44.2254 61.5603 44.4783 61.2822 44.794 61.0931C45.1098 60.9041 45.4743 60.8126 45.8418 60.83C46.2094 60.8474 46.5637 60.973 46.8601 61.191C47.1566 61.409 47.3821 61.7098 47.5083 62.0556C47.5952 62.3183 47.6418 62.5927 47.6466 62.8695C47.6523 64.5977 46.8757 65.4619 45.3166 65.4619ZM41.321 63.2573V63.2165C41.2782 62.9217 41.1515 62.7744 40.9407 62.7744H40.8765C40.6584 62.7744 40.5493 62.9526 40.5493 63.3091C40.5481 63.4396 40.5832 63.5679 40.6506 63.6797C40.6736 63.7286 40.7096 63.7702 40.7547 63.8001C40.7997 63.8299 40.8521 63.8468 40.9062 63.8489C41.1836 63.8489 41.3218 63.6842 41.321 63.3548V63.2573Z" stroke="white" stroke-width="0.25" stroke-miterlimit="10"/>
<path d="M56.2354 61.7096V66.4659H55.0797V61.7096H54.6389C54.3172 61.6952 53.9955 61.737 53.6881 61.8331C54.2296 62.4047 54.5241 63.1666 54.508 63.9538C54.508 65.6533 54.0306 66.5034 53.0757 66.5042C52.8123 66.4977 52.5583 66.405 52.3525 66.2404C52.1467 66.0758 52.0004 65.8483 51.936 65.5927C51.7592 65.1055 51.6754 64.5893 51.6891 64.0711C51.6468 63.304 51.8687 62.5455 52.3176 61.9221C51.9763 61.7264 51.5871 61.6302 51.194 61.6442C50.9455 61.6349 50.6976 61.6747 50.4645 61.7614C50.2315 61.8481 50.0178 61.9799 49.8357 62.1493C49.4693 62.5136 49.2406 62.9938 49.1887 63.5079C49.2922 63.3062 49.4485 63.1363 49.641 63.0164C49.8334 62.8966 50.0548 62.8312 50.2815 62.8274C50.5019 62.8204 50.7204 62.8699 50.9162 62.9713C51.112 63.0727 51.2786 63.2226 51.4002 63.4066C51.6521 63.7864 51.7786 64.2357 51.7619 64.6911C51.7757 65.1477 51.6284 65.5945 51.3458 65.9534C51.2168 66.1276 51.0479 66.2685 50.8532 66.3641C50.6586 66.4598 50.4439 66.5073 50.2271 66.503C49.892 66.5021 49.565 66.399 49.29 66.2074C49.0149 66.0159 48.8047 65.745 48.6874 65.431C48.4801 64.9484 48.3834 64.4255 48.4047 63.9007C48.3809 63.0937 48.6637 62.3077 49.1961 61.701C49.4415 61.4146 49.7472 61.1862 50.0914 61.0322C50.4356 60.8782 50.8096 60.8025 51.1866 60.8105C51.8305 60.7748 52.47 60.9373 53.0189 61.2761C53.5691 60.9751 54.1932 60.8359 54.8192 60.8747H56.9874V61.7059L56.2354 61.7096ZM50.3704 64.0563C50.3452 63.9886 50.3013 63.9295 50.2438 63.8857C50.1863 63.842 50.1176 63.8155 50.0456 63.8093C49.7756 63.8093 49.6407 64.0839 49.6407 64.6331C49.6364 64.843 49.669 65.052 49.737 65.2506C49.8291 65.4886 49.9675 65.6075 50.1518 65.6075C50.2827 65.6075 50.3856 65.5079 50.4605 65.3087C50.5147 65.1496 50.5418 64.9826 50.5408 64.8146C50.546 64.5494 50.4876 64.2868 50.3704 64.0489V64.0563ZM52.9065 62.4284C52.6062 62.9058 52.4541 63.4616 52.4695 64.0254C52.4695 64.974 52.6275 65.4478 52.9436 65.447C53.2243 65.447 53.3646 64.9497 53.3646 63.955C53.3947 63.4083 53.2326 62.8683 52.9065 62.4284Z" fill="white"/>
<path d="M56.2354 61.7096V66.4659H55.0797V61.7096H54.6389C54.3172 61.6952 53.9955 61.737 53.6881 61.8331C54.2296 62.4047 54.5241 63.1666 54.508 63.9538C54.508 65.6533 54.0306 66.5034 53.0757 66.5042C52.8123 66.4977 52.5583 66.405 52.3525 66.2404C52.1467 66.0758 52.0004 65.8483 51.936 65.5927C51.7592 65.1055 51.6754 64.5893 51.6891 64.0711C51.6468 63.304 51.8687 62.5455 52.3176 61.9221C51.9763 61.7264 51.5871 61.6302 51.194 61.6442C50.9455 61.6349 50.6976 61.6747 50.4645 61.7614C50.2315 61.8481 50.0178 61.9799 49.8357 62.1493C49.4693 62.5136 49.2406 62.9938 49.1887 63.5079C49.2922 63.3062 49.4485 63.1363 49.641 63.0164C49.8334 62.8966 50.0548 62.8312 50.2815 62.8274C50.5019 62.8204 50.7204 62.8699 50.9162 62.9713C51.112 63.0727 51.2786 63.2226 51.4002 63.4066C51.6521 63.7864 51.7786 64.2357 51.7619 64.6911C51.7757 65.1477 51.6284 65.5945 51.3458 65.9534C51.2168 66.1276 51.0479 66.2685 50.8532 66.3641C50.6586 66.4598 50.4439 66.5073 50.2271 66.503C49.892 66.5021 49.565 66.399 49.29 66.2074C49.0149 66.0159 48.8047 65.745 48.6874 65.431C48.4801 64.9484 48.3834 64.4255 48.4047 63.9007C48.3809 63.0937 48.6637 62.3077 49.1961 61.701C49.4415 61.4146 49.7472 61.1862 50.0914 61.0322C50.4356 60.8782 50.8096 60.8025 51.1866 60.8105C51.8305 60.7748 52.47 60.9373 53.0189 61.2761C53.5691 60.9751 54.1932 60.8359 54.8192 60.8747H56.9874V61.7059L56.2354 61.7096ZM50.3704 64.0563C50.3452 63.9886 50.3013 63.9295 50.2438 63.8857C50.1863 63.842 50.1176 63.8155 50.0456 63.8093C49.7756 63.8093 49.6407 64.0839 49.6407 64.6331C49.6364 64.843 49.669 65.052 49.737 65.2506C49.8291 65.4886 49.9675 65.6075 50.1518 65.6075C50.2827 65.6075 50.3856 65.5079 50.4605 65.3087C50.5147 65.1496 50.5418 64.9826 50.5408 64.8146C50.5439 64.554 50.4855 64.2963 50.3704 64.0625V64.0563ZM52.9065 62.4359C52.6062 62.9132 52.4541 63.469 52.4695 64.0328C52.4695 64.9814 52.6275 65.4552 52.9436 65.4544C53.2243 65.4544 53.3646 64.9571 53.3646 63.9624C53.3932 63.4178 53.2312 62.8802 52.9065 62.442V62.4359Z" stroke="white" stroke-width="0.25" stroke-miterlimit="10"/>
<path d="M60.4848 61.7108V66.7807L57.5491 68.8568V67.9923L59.3387 66.1953V61.712H58.1555V66.4719H57.3885V60.8833H61.6038V61.7145L60.4848 61.7108Z" fill="white"/>
<path d="M60.4848 61.7108V66.7807L57.5491 68.8568V67.9923L59.3387 66.1953V61.712H58.1555V66.4719H57.3885V60.8833H61.6038V61.7145L60.4848 61.7108Z" stroke="white" stroke-width="0.25" stroke-miterlimit="10"/>
<path d="M63.0177 63.5648C63.1168 63.3491 63.2749 63.1658 63.4737 63.0362C63.6726 62.9066 63.904 62.836 64.1413 62.8324C64.3614 62.8252 64.5796 62.8742 64.7754 62.9749C64.9711 63.0757 65.138 63.2247 65.26 63.408C65.5127 63.792 65.6392 64.2454 65.6218 64.7048C65.6356 65.1628 65.4883 65.6112 65.2057 65.9719C65.0769 66.1466 64.9081 66.288 64.7135 66.384C64.5188 66.4801 64.304 66.5281 64.087 66.524C63.7471 66.5211 63.4164 66.4133 63.14 66.2155C62.8636 66.0177 62.6549 65.7394 62.5423 65.4186C62.3374 64.9195 62.243 64.3818 62.2658 63.8427C62.2399 63.1112 62.4427 62.3897 62.8461 61.779C63.0331 61.484 63.2934 61.2427 63.6016 61.0786C63.9098 60.9145 64.2553 60.8332 64.6044 60.8428C65.281 60.8094 65.9458 61.0296 66.4688 61.4603C66.7342 61.7048 66.9416 62.0053 67.0762 62.3401C67.2108 62.6749 67.269 63.0355 67.2467 63.3956V64.1119C67.227 64.4831 67.2666 64.855 67.364 65.2136C67.4179 65.3527 67.5159 65.4702 67.6431 65.548C67.7702 65.6259 67.9195 65.6599 68.0678 65.6446C68.2828 65.6386 68.4902 65.564 68.6599 65.4318C68.8295 65.2997 68.9526 65.1168 69.0111 64.9098C69.1798 64.4653 69.2595 63.9919 69.2457 63.5167C69.2725 63.2187 69.2386 62.9185 69.146 62.634C69.0535 62.3496 68.9043 62.0869 68.7074 61.8617C68.51 61.7478 68.2964 61.6645 68.074 61.6147C67.7085 61.506 67.5257 61.3002 67.5257 60.9972C67.5257 60.6942 67.6941 60.5369 68.0307 60.5254C68.5674 60.5254 69.0576 60.8848 69.5013 61.6036C69.8533 62.1779 70.034 62.8407 70.0224 63.5142C70.0418 64.1939 69.9014 64.8686 69.6124 65.4841C69.4903 65.7908 69.2787 66.0536 69.0052 66.2384C68.7317 66.4232 68.409 66.5214 68.0789 66.5203C67.786 66.5468 67.491 66.5011 67.2198 66.3872C66.9486 66.2733 66.7094 66.0947 66.5231 65.8669C66.2046 65.3333 66.0576 64.7146 66.1021 64.0947V63.319C66.117 63.0977 66.0838 62.8758 66.0047 62.6686C65.9256 62.4613 65.8026 62.2737 65.644 62.1186C65.3193 61.844 64.9017 61.7043 64.4772 61.7283C64.2673 61.7246 64.0601 61.775 63.8754 61.8747C63.6907 61.9745 63.5348 62.1201 63.4227 62.2977C63.1813 62.6765 63.0418 63.1113 63.0177 63.5599V63.5648ZM64.2377 64.0613C64.2122 63.9938 64.1682 63.9348 64.1108 63.8911C64.0534 63.8474 63.9848 63.8208 63.9129 63.8143C63.6429 63.8143 63.5079 64.0934 63.5079 64.6517C63.5039 64.8643 63.5361 65.076 63.603 65.2778C63.696 65.5199 63.8347 65.6409 64.0191 65.6409C64.15 65.6409 64.2537 65.5384 64.3278 65.3359C64.3805 65.1765 64.4071 65.0097 64.4068 64.8419C64.4117 64.5727 64.3534 64.3062 64.2364 64.0638" fill="white"/>
<path d="M63.0177 63.5648C63.1168 63.3491 63.2749 63.1658 63.4737 63.0362C63.6726 62.9066 63.904 62.836 64.1413 62.8324C64.3614 62.8252 64.5796 62.8742 64.7754 62.9749C64.9711 63.0757 65.138 63.2247 65.26 63.408C65.5127 63.792 65.6392 64.2454 65.6218 64.7048C65.6356 65.1628 65.4883 65.6112 65.2057 65.9719C65.0769 66.1466 64.9081 66.288 64.7135 66.384C64.5188 66.4801 64.304 66.5281 64.087 66.524C63.7471 66.5211 63.4164 66.4133 63.14 66.2155C62.8636 66.0177 62.6549 65.7394 62.5423 65.4186C62.3374 64.9195 62.243 64.3818 62.2658 63.8427C62.2399 63.1112 62.4427 62.3897 62.8461 61.779C63.0331 61.484 63.2934 61.2427 63.6016 61.0786C63.9098 60.9145 64.2553 60.8332 64.6044 60.8428C65.281 60.8094 65.9458 61.0296 66.4688 61.4603C66.7342 61.7048 66.9416 62.0053 67.0762 62.3401C67.2108 62.6749 67.269 63.0355 67.2467 63.3956V64.1119C67.227 64.4831 67.2666 64.855 67.364 65.2136C67.4179 65.3527 67.5159 65.4702 67.6431 65.548C67.7702 65.6259 67.9195 65.6599 68.0678 65.6446C68.2828 65.6386 68.4902 65.564 68.6599 65.4318C68.8295 65.2997 68.9526 65.1168 69.0111 64.9098C69.1798 64.4653 69.2595 63.9919 69.2457 63.5167C69.2725 63.2187 69.2386 62.9185 69.146 62.634C69.0535 62.3496 68.9043 62.0869 68.7074 61.8617C68.51 61.7478 68.2964 61.6645 68.074 61.6147C67.7085 61.506 67.5257 61.3002 67.5257 60.9972C67.5257 60.6942 67.6941 60.5369 68.0307 60.5254C68.5674 60.5254 69.0576 60.8848 69.5013 61.6036C69.8533 62.1779 70.034 62.8407 70.0224 63.5142C70.0418 64.1939 69.9014 64.8686 69.6124 65.4841C69.4903 65.7908 69.2787 66.0536 69.0052 66.2384C68.7317 66.4232 68.409 66.5214 68.0789 66.5203C67.786 66.5468 67.491 66.5011 67.2198 66.3872C66.9486 66.2733 66.7094 66.0947 66.5231 65.8669C66.2046 65.3333 66.0576 64.7146 66.1021 64.0947V63.319C66.117 63.0977 66.0838 62.8758 66.0047 62.6686C65.9256 62.4613 65.8026 62.2737 65.644 62.1186C65.3193 61.844 64.9017 61.7043 64.4772 61.7283C64.2673 61.7246 64.0601 61.775 63.8754 61.8747C63.6907 61.9745 63.5348 62.1201 63.4227 62.2977C63.1805 62.6779 63.041 63.1145 63.0177 63.5648V63.5648ZM64.2377 64.0663C64.2122 63.9987 64.1682 63.9397 64.1108 63.896C64.0534 63.8524 63.9848 63.8257 63.9129 63.8192C63.6429 63.8192 63.5079 64.0984 63.5079 64.6566C63.5039 64.8692 63.5361 65.0809 63.603 65.2828C63.696 65.5248 63.8347 65.6459 64.0191 65.6459C64.15 65.6459 64.2537 65.5434 64.3278 65.3408C64.3805 65.1815 64.4071 65.0146 64.4068 64.8468C64.4125 64.5769 64.3546 64.3095 64.2377 64.0663Z" stroke="white" stroke-width="0.25" stroke-miterlimit="10"/>
<path d="M67.2145 60.3733C67.1108 60.3735 67.0082 60.3516 66.9137 60.309C66.8191 60.2664 66.7347 60.2041 66.6662 60.1263C66.5911 60.0477 66.5323 59.9552 66.493 59.8539C66.4538 59.7526 66.435 59.6445 66.4377 59.5359C66.4318 59.3122 66.5118 59.0948 66.6612 58.9283C66.7301 58.8492 66.8154 58.7861 66.9112 58.7435C67.007 58.7008 67.1109 58.6796 67.2158 58.6812C67.3193 58.68 67.4218 58.7015 67.5162 58.7441C67.6105 58.7868 67.6943 58.8497 67.7617 58.9283C67.9108 59.0927 67.9917 59.3078 67.9877 59.5297C67.9932 59.7486 67.9119 59.9608 67.7617 60.1201C67.6938 60.198 67.6098 60.2604 67.5156 60.3031C67.4214 60.3457 67.3192 60.3675 67.2158 60.3671" fill="white"/>
<path d="M67.2145 60.3733C67.1108 60.3735 67.0082 60.3516 66.9137 60.309C66.8191 60.2664 66.7347 60.2041 66.6662 60.1263C66.5911 60.0477 66.5323 59.9552 66.493 59.8539C66.4538 59.7526 66.435 59.6445 66.4377 59.5359C66.4318 59.3122 66.5118 59.0948 66.6612 58.9283C66.7301 58.8492 66.8154 58.7861 66.9112 58.7435C67.007 58.7008 67.1109 58.6796 67.2158 58.6812C67.3193 58.68 67.4218 58.7015 67.5162 58.7441C67.6105 58.7868 67.6943 58.8497 67.7617 58.9283C67.9108 59.0927 67.9917 59.3078 67.9877 59.5297C67.9932 59.7486 67.9119 59.9608 67.7617 60.1201C67.6942 60.1993 67.6103 60.263 67.5159 60.3067C67.4214 60.3504 67.3186 60.3731 67.2145 60.3733V60.3733Z" stroke="white" stroke-width="0.25" stroke-miterlimit="10"/>
<path d="M85.0392 68.3222V63.3894C85.0823 62.4531 84.7874 61.5326 84.2082 60.7958C83.9252 60.4618 83.5696 60.1971 83.1685 60.0218C82.7674 59.8464 82.3316 59.7652 81.8943 59.7843C81.427 59.763 80.961 59.8482 80.5315 60.0335C80.102 60.2188 79.7202 60.4993 79.415 60.8538C78.7886 61.6385 78.4703 62.6249 78.5198 63.6278C78.5126 64.2012 78.5959 64.7723 78.7667 65.3198C79.6248 64.8722 80.581 64.6463 81.5486 64.6627C81.9329 64.6579 82.3171 64.681 82.6981 64.7319C82.7381 64.4488 82.7579 64.1632 82.7574 63.8772C82.7758 63.3468 82.6477 62.8216 82.387 62.3593C82.268 62.1466 82.0932 61.9703 81.8815 61.8496C81.6698 61.7288 81.4292 61.668 81.1856 61.6739C80.9205 61.6667 80.6577 61.7244 80.42 61.8419C80.5174 61.8152 80.6179 61.8019 80.7188 61.8024C80.8834 61.7984 81.0468 61.832 81.1965 61.9004C81.3462 61.9689 81.4785 62.0705 81.5832 62.1976C81.8107 62.4712 81.9302 62.8187 81.919 63.1745C81.9275 63.3651 81.8937 63.5551 81.8201 63.7311C81.7464 63.9071 81.6348 64.0645 81.493 64.1922C81.2256 64.4315 80.8762 64.5585 80.5176 64.5466C80.3169 64.5521 80.1178 64.5103 79.9363 64.4244C79.7548 64.3386 79.5961 64.2112 79.473 64.0526C79.2081 63.7216 79.0702 63.3068 79.0841 62.883C79.0728 62.5978 79.1242 62.3137 79.2347 62.0505C79.3452 61.7874 79.5121 61.5518 79.7236 61.3602C80.1236 61.0013 80.646 60.8094 81.1831 60.8242C81.5578 60.8107 81.9307 60.8813 82.2745 61.0309C82.6184 61.1805 82.9242 61.4053 83.1698 61.6887C83.6805 62.302 83.9446 63.0835 83.9106 63.8809C83.9125 64.2654 83.8748 64.6491 83.7983 65.0258C84.1233 65.1253 84.408 65.3265 84.6104 65.5996C84.8128 65.8728 84.9224 66.2037 84.9231 66.5437C84.9418 66.8852 84.8656 67.2251 84.7031 67.5259C84.5405 67.8268 84.2978 68.0767 84.002 68.2481C83.4507 68.5601 82.8237 68.7132 82.1906 68.6902C81.6202 68.6903 81.0553 68.5774 80.5287 68.358C79.9018 68.5152 79.2574 68.5916 78.6112 68.5852C77.6777 68.5852 77.2105 68.176 77.2097 67.3576C77.2218 67.0487 77.3045 66.7466 77.4513 66.4745C77.5981 66.2024 77.8052 65.9675 78.0568 65.7879C77.7977 65.0984 77.6695 64.3667 77.6789 63.6302C77.6142 62.3501 78.0156 61.0899 78.8087 60.0831C79.1997 59.628 79.6893 59.2679 80.2401 59.0301C80.791 58.7924 81.3888 58.6833 81.9881 58.711C82.5307 58.6886 83.0709 58.7949 83.5645 59.0214C84.0581 59.2479 84.4911 59.588 84.828 60.014C85.5144 60.935 85.8609 62.0653 85.8084 63.2128V68.3308L85.0392 68.3222ZM78.4346 66.5425C78.3209 66.6361 78.2274 66.7517 78.1597 66.8825C78.092 67.0133 78.0515 67.1564 78.0407 67.3033C78.0407 67.5865 78.2786 67.7281 78.7544 67.7281C78.9853 67.7281 79.2112 67.7182 79.431 67.6985C79.0341 67.3736 78.6969 66.982 78.4346 66.5412V66.5425ZM81.556 65.5063C80.7048 65.4879 79.8625 65.6819 79.105 66.0707C79.4391 66.6669 79.9464 67.1475 80.5596 67.449C81.0081 67.3066 81.4173 67.0618 81.7549 66.7338C82.0924 66.4058 82.349 66.0037 82.5043 65.5594C82.1896 65.5217 81.8729 65.5044 81.556 65.5075V65.5063ZM80.6287 62.6866C80.6027 62.6718 80.5734 62.6638 80.5435 62.6632C80.3789 62.6632 80.2966 62.82 80.2966 63.1337C80.2966 63.5454 80.4048 63.7492 80.6213 63.7451C80.7633 63.7451 80.8337 63.5722 80.8337 63.2276C80.8484 63.1277 80.8375 63.0256 80.8021 62.931C80.7667 62.8364 80.7079 62.7523 80.6312 62.6866H80.6287ZM83.5229 65.9435C83.1913 66.7394 82.6021 67.4009 81.8498 67.822C81.9671 67.8294 82.082 67.8331 82.1968 67.8331C82.5819 67.8512 82.9637 67.754 83.2933 67.554C83.457 67.4445 83.5894 67.2942 83.6773 67.1179C83.7653 66.9416 83.8056 66.7454 83.7946 66.5486C83.7978 66.4338 83.7751 66.3197 83.728 66.2149C83.681 66.1101 83.6109 66.0173 83.5229 65.9435Z" fill="white"/>
<path d="M85.0392 68.3222V63.3894C85.0823 62.4531 84.7874 61.5326 84.2082 60.7958C83.9252 60.4618 83.5696 60.1971 83.1685 60.0218C82.7674 59.8464 82.3316 59.7652 81.8943 59.7843C81.427 59.763 80.961 59.8482 80.5315 60.0335C80.102 60.2188 79.7202 60.4993 79.415 60.8538C78.7886 61.6385 78.4703 62.6249 78.5198 63.6278C78.5126 64.2012 78.5959 64.7723 78.7667 65.3198C79.6248 64.8722 80.581 64.6463 81.5486 64.6627C81.9329 64.6579 82.3171 64.681 82.6981 64.7319C82.7381 64.4488 82.7579 64.1632 82.7574 63.8772C82.7758 63.3468 82.6477 62.8216 82.387 62.3594C82.268 62.1466 82.0932 61.9703 81.8815 61.8496C81.6698 61.7288 81.4292 61.668 81.1856 61.6739C80.9205 61.6667 80.6577 61.7244 80.42 61.8419C80.5174 61.8152 80.6179 61.8019 80.7188 61.8024C80.8834 61.7984 81.0468 61.832 81.1965 61.9004C81.3462 61.9689 81.4785 62.0705 81.5832 62.1976C81.8107 62.4712 81.9302 62.8187 81.919 63.1745C81.9275 63.3651 81.8937 63.5551 81.8201 63.7311C81.7464 63.9071 81.6348 64.0645 81.493 64.1922C81.2256 64.4315 80.8762 64.5585 80.5176 64.5466C80.3169 64.5521 80.1178 64.5103 79.9363 64.4244C79.7548 64.3386 79.5961 64.2112 79.473 64.0526C79.2081 63.7216 79.0702 63.3068 79.0841 62.883C79.0728 62.5978 79.1242 62.3137 79.2347 62.0505C79.3452 61.7874 79.5121 61.5518 79.7236 61.3602C80.1236 61.0013 80.646 60.8094 81.1831 60.8242C81.5578 60.8107 81.9307 60.8813 82.2745 61.0309C82.6184 61.1805 82.9242 61.4053 83.1698 61.6887C83.6805 62.302 83.9446 63.0835 83.9106 63.8809C83.9125 64.2654 83.8748 64.6491 83.7983 65.0258C84.1233 65.1253 84.408 65.3265 84.6104 65.5996C84.8128 65.8728 84.9224 66.2037 84.9231 66.5437C84.9418 66.8852 84.8656 67.2251 84.7031 67.5259C84.5405 67.8268 84.2978 68.0767 84.002 68.2481C83.4507 68.5601 82.8237 68.7132 82.1906 68.6902C81.6202 68.6903 81.0553 68.5774 80.5287 68.358C79.9018 68.5152 79.2574 68.5916 78.6112 68.5852C77.6777 68.5852 77.2105 68.176 77.2097 67.3576C77.2218 67.0487 77.3045 66.7466 77.4513 66.4745C77.5981 66.2024 77.8052 65.9675 78.0568 65.7879C77.7977 65.0984 77.6695 64.3667 77.6789 63.6302C77.6142 62.3501 78.0156 61.0899 78.8087 60.0831C79.1997 59.628 79.6893 59.2679 80.2401 59.0301C80.791 58.7924 81.3888 58.6833 81.9881 58.711C82.5307 58.6886 83.0709 58.7949 83.5645 59.0214C84.0581 59.2479 84.4911 59.588 84.828 60.014C85.5144 60.935 85.8609 62.0653 85.8084 63.2128V68.3308L85.0392 68.3222ZM78.4346 66.5425C78.3209 66.6361 78.2274 66.7517 78.1597 66.8825C78.092 67.0133 78.0515 67.1564 78.0407 67.3033C78.0407 67.5865 78.2786 67.7281 78.7544 67.7281C78.9853 67.7281 79.2112 67.7182 79.431 67.6985C79.0342 67.374 78.6971 66.9828 78.4346 66.5425V66.5425ZM81.556 65.5075C80.7048 65.4891 79.8625 65.6831 79.105 66.0719C79.4391 66.6681 79.9464 67.1488 80.5596 67.4502C81.0081 67.3079 81.4173 67.063 81.7549 66.735C82.0924 66.407 82.349 66.005 82.5043 65.5606C82.1897 65.5225 81.8729 65.5048 81.556 65.5075V65.5075ZM80.6287 62.6866C80.6027 62.6718 80.5734 62.6638 80.5435 62.6632C80.3789 62.6632 80.2966 62.82 80.2966 63.1337C80.2966 63.5454 80.4048 63.7492 80.6213 63.7451C80.7633 63.7451 80.8337 63.5722 80.8337 63.2276C80.8481 63.1274 80.8368 63.0253 80.801 62.9307C80.7651 62.8361 80.7059 62.7521 80.6287 62.6866V62.6866ZM83.5205 65.9435C83.1889 66.7394 82.5997 67.4009 81.8474 67.822C81.9647 67.8294 82.0795 67.8331 82.1944 67.8331C82.5795 67.8512 82.9612 67.754 83.2908 67.554C83.4546 67.4445 83.5869 67.2942 83.6749 67.1179C83.7628 66.9416 83.8032 66.7454 83.7921 66.5486C83.7955 66.4339 83.773 66.3199 83.7261 66.2151C83.6793 66.1103 83.6094 66.0175 83.5217 65.9435H83.5205Z" stroke="white" stroke-width="0.25" stroke-miterlimit="10"/>
<path d="M94.3925 61.7096V66.4659H93.2368V61.7096H92.796C92.4743 61.6952 92.1526 61.737 91.8453 61.8331C92.3868 62.4046 92.6814 63.1665 92.6651 63.9538C92.6651 65.6533 92.1877 66.5034 91.2328 66.5042C90.9694 66.4979 90.7152 66.4052 90.5094 66.2406C90.3035 66.076 90.1574 65.8484 90.0932 65.5927C89.9163 65.1055 89.8326 64.5893 89.8462 64.0711C89.8038 63.3039 90.0256 62.5454 90.4747 61.922C90.133 61.7263 89.7434 61.6301 89.3499 61.6442C89.1014 61.6349 88.8535 61.6748 88.6205 61.7615C88.3874 61.8482 88.1737 61.9799 87.9916 62.1493C87.6252 62.5136 87.3966 62.9938 87.3447 63.5079C87.448 63.3063 87.6041 63.1366 87.7963 63.0167C87.9886 62.8969 88.2097 62.8314 88.4361 62.8274C88.6565 62.8204 88.875 62.8699 89.0709 62.9713C89.2667 63.0727 89.4333 63.2226 89.5548 63.4066C89.8066 63.7865 89.9331 64.2357 89.9166 64.6911C89.9306 65.1475 89.7837 65.5943 89.5017 65.9534C89.3726 66.1276 89.2038 66.2685 89.0091 66.3641C88.8145 66.4598 88.5998 66.5073 88.383 66.503C88.0479 66.5021 87.721 66.399 87.4459 66.2074C87.1708 66.0159 86.9606 65.745 86.8433 65.431C86.6366 64.9482 86.5404 64.4254 86.5618 63.9007C86.5374 63.0938 86.8198 62.3077 87.352 61.701C87.5972 61.4147 87.9028 61.1864 88.2467 61.0324C88.5907 60.8784 88.9645 60.8026 89.3412 60.8105C89.9852 60.7749 90.6246 60.9374 91.1736 61.2761C91.7237 60.975 92.3479 60.8359 92.9738 60.8747H95.142V61.7059L94.3925 61.7096ZM88.5275 64.0563C88.5022 63.9887 88.4582 63.9296 88.4008 63.8859C88.3433 63.8422 88.2747 63.8156 88.2028 63.8093C87.9328 63.8093 87.7978 64.0839 87.7978 64.6331C87.7937 64.8429 87.8263 65.0519 87.8941 65.2506C87.9863 65.4886 88.1246 65.6075 88.309 65.6075C88.4407 65.6075 88.5436 65.5079 88.6176 65.3087C88.6712 65.1495 88.6979 64.9825 88.6967 64.8146C88.7018 64.5494 88.6434 64.2869 88.5263 64.0489L88.5275 64.0563ZM91.0624 62.4284C90.7619 62.9057 90.6097 63.4615 90.6253 64.0254C90.6253 64.974 90.7834 65.4478 91.0995 65.447C91.3794 65.447 91.5197 64.9497 91.5205 63.955C91.5506 63.4083 91.3885 62.8682 91.0624 62.4284Z" fill="white"/>
<path d="M94.3925 61.7096V66.4659H93.2368V61.7096H92.796C92.4743 61.6952 92.1526 61.737 91.8453 61.8331C92.3868 62.4046 92.6814 63.1665 92.6651 63.9538C92.6651 65.6533 92.1877 66.5034 91.2328 66.5042C90.9694 66.4979 90.7152 66.4052 90.5094 66.2406C90.3035 66.076 90.1574 65.8484 90.0932 65.5927C89.9163 65.1055 89.8326 64.5893 89.8462 64.0711C89.8038 63.3039 90.0256 62.5454 90.4747 61.922C90.133 61.7263 89.7434 61.6301 89.3499 61.6442C89.1014 61.6349 88.8535 61.6748 88.6205 61.7615C88.3874 61.8482 88.1737 61.9799 87.9916 62.1493C87.6252 62.5136 87.3966 62.9938 87.3447 63.5079C87.448 63.3063 87.6041 63.1366 87.7963 63.0167C87.9886 62.8969 88.2097 62.8314 88.4361 62.8274C88.6565 62.8204 88.875 62.8699 89.0709 62.9713C89.2667 63.0727 89.4333 63.2226 89.5548 63.4066C89.8066 63.7865 89.9331 64.2357 89.9166 64.6911C89.9306 65.1475 89.7837 65.5943 89.5017 65.9534C89.3726 66.1276 89.2038 66.2685 89.0091 66.3641C88.8145 66.4598 88.5998 66.5073 88.383 66.503C88.0479 66.5021 87.721 66.399 87.4459 66.2074C87.1708 66.0159 86.9606 65.745 86.8433 65.431C86.6366 64.9482 86.5404 64.4254 86.5618 63.9007C86.5374 63.0938 86.8198 62.3077 87.352 61.701C87.5972 61.4147 87.9028 61.1864 88.2467 61.0324C88.5907 60.8784 88.9645 60.8026 89.3412 60.8105C89.9852 60.7749 90.6246 60.9374 91.1736 61.2761C91.7237 60.975 92.3479 60.8359 92.9738 60.8747H95.142V61.7059L94.3925 61.7096ZM88.5275 64.0563C88.5022 63.9887 88.4582 63.9296 88.4008 63.8859C88.3433 63.8422 88.2747 63.8156 88.2028 63.8093C87.9328 63.8093 87.7978 64.0839 87.7978 64.6331C87.7937 64.8429 87.8263 65.0519 87.8941 65.2506C87.9863 65.4886 88.1246 65.6075 88.309 65.6075C88.4407 65.6075 88.5436 65.5079 88.6176 65.3087C88.6712 65.1495 88.6979 64.9825 88.6967 64.8146C88.7 64.5541 88.642 64.2965 88.5275 64.0625V64.0563ZM91.0637 62.4358C90.7631 62.9131 90.611 63.4689 90.6266 64.0328C90.6266 64.9814 90.7846 65.4552 91.1007 65.4544C91.3806 65.4544 91.5209 64.9571 91.5218 63.9624C91.5503 63.4178 91.3884 62.8802 91.0637 62.442V62.4358Z" stroke="white" stroke-width="0.25" stroke-miterlimit="10"/>
<path d="M92.181 60.3733C92.0773 60.3735 91.9747 60.3516 91.8802 60.309C91.7856 60.2664 91.7012 60.2041 91.6327 60.1263C91.5576 60.0477 91.4987 59.9552 91.4595 59.8539C91.4203 59.7526 91.4015 59.6445 91.4042 59.5359C91.3983 59.3122 91.4783 59.0948 91.6277 58.9283C91.6966 58.8492 91.7819 58.7861 91.8777 58.7435C91.9735 58.7008 92.0774 58.6796 92.1823 58.6812C92.2858 58.68 92.3883 58.7015 92.4826 58.7441C92.5769 58.7868 92.6608 58.8497 92.7281 58.9283C92.8773 59.0927 92.9581 59.3078 92.9542 59.5297C92.9597 59.7486 92.8784 59.9608 92.7281 60.1201C92.6602 60.198 92.5762 60.2603 92.4821 60.303C92.3879 60.3456 92.2856 60.3675 92.1823 60.3671" fill="white"/>
<path d="M92.181 60.3733C92.0773 60.3735 91.9747 60.3516 91.8802 60.309C91.7856 60.2664 91.7012 60.2041 91.6327 60.1263C91.5576 60.0477 91.4987 59.9552 91.4595 59.8539C91.4203 59.7526 91.4015 59.6445 91.4042 59.5359C91.3983 59.3122 91.4783 59.0948 91.6277 58.9283C91.6966 58.8492 91.7819 58.7861 91.8777 58.7435C91.9735 58.7008 92.0774 58.6796 92.1823 58.6812C92.2858 58.68 92.3883 58.7015 92.4826 58.7441C92.5769 58.7868 92.6608 58.8497 92.7281 58.9283C92.8773 59.0927 92.9581 59.3078 92.9542 59.5297C92.9597 59.7486 92.8784 59.9608 92.7281 60.1201C92.6606 60.1993 92.5768 60.2629 92.4823 60.3066C92.3879 60.3503 92.2851 60.373 92.181 60.3733V60.3733Z" stroke="white" stroke-width="0.25" stroke-miterlimit="10"/>
<path d="M103.777 65.0788C103.515 65.0759 103.256 65.0094 103.025 64.8848C102.794 64.7603 102.596 64.5815 102.449 64.3637C102.123 63.9156 101.954 63.3725 101.968 62.8187C101.951 62.2888 102.143 61.7733 102.502 61.3836C102.669 61.1993 102.874 61.0531 103.103 60.9548C103.332 60.8566 103.579 60.8087 103.828 60.8142C105.106 60.8142 105.746 61.3844 105.746 62.5247C105.739 62.8818 105.682 63.2362 105.575 63.577L106.141 63.2571V66.4682H104.468L103.616 68.6777H102.396L103.26 66.4682H99.5089V65.9495C99.7285 65.6392 99.8908 65.292 99.988 64.9244C100.061 64.5565 100.093 64.1817 100.084 63.8067C100.113 63.2633 99.9449 62.7277 99.6101 62.2987C99.4447 62.1071 99.238 61.9556 99.0055 61.8557C98.773 61.7558 98.5208 61.71 98.268 61.7219C98.0303 61.7255 97.7972 61.7876 97.5892 61.9026C97.3812 62.0176 97.2047 62.1821 97.0752 62.3815C96.818 62.7331 96.6628 63.1489 96.627 63.5831C96.7241 63.3632 96.882 63.1756 97.0822 63.0426C97.2824 62.9095 97.5165 62.8365 97.7568 62.8322C97.9768 62.825 98.1951 62.874 98.3908 62.9747C98.5866 63.0755 98.7534 63.2245 98.8755 63.4078C99.1286 63.7916 99.2556 64.245 99.2385 64.7046C99.2523 65.163 99.1051 65.6118 98.8224 65.973C98.6936 66.1477 98.5248 66.289 98.3301 66.385C98.1355 66.4811 97.9207 66.5291 97.7037 66.525C97.3631 66.5216 97.0318 66.413 96.7553 66.214C96.4788 66.0151 96.2705 65.7354 96.1591 65.4135C95.9541 64.9135 95.8597 64.375 95.8825 63.8351C95.8552 63.0522 96.1192 62.2869 96.6233 61.6874C96.8584 61.4043 97.1544 61.1782 97.4893 61.0259C97.8242 60.8736 98.1891 60.7991 98.5569 60.808C98.9237 60.7913 99.2897 60.8551 99.6293 60.9948C99.9689 61.1346 100.274 61.3469 100.523 61.617C101.031 62.2174 101.292 62.9888 101.252 63.7746C101.277 64.414 101.146 65.05 100.87 65.6272H103.577L103.777 65.0788ZM97.8506 64.0661C97.8253 63.9984 97.7814 63.9394 97.7239 63.8957C97.6665 63.852 97.5978 63.8254 97.5259 63.8191C97.2559 63.8191 97.1209 64.0965 97.1209 64.6515C97.1174 64.8612 97.1496 65.07 97.216 65.269C97.309 65.5094 97.4477 65.6296 97.6321 65.6296C97.763 65.6296 97.8659 65.5287 97.9408 65.327C97.9937 65.1677 98.0204 65.0009 98.0198 64.833C98.0249 64.5655 97.9665 64.3005 97.8494 64.0599L97.8506 64.0661ZM103.751 61.6528C103.608 61.6477 103.465 61.6779 103.336 61.7408C103.207 61.8036 103.095 61.8973 103.011 62.0134C102.828 62.2667 102.736 62.5745 102.75 62.8866C102.738 63.2232 102.833 63.555 103.022 63.8339C103.107 63.9626 103.223 64.0676 103.36 64.1389C103.497 64.2102 103.65 64.2455 103.805 64.2414C103.903 64.2417 104 64.2241 104.092 64.1895C104.331 63.6266 104.501 63.037 104.598 62.4333C104.598 61.9138 104.316 61.654 103.751 61.654V61.6528ZM105.317 64.7305L105.082 64.8404L104.784 65.6321H105.317V64.7305Z" fill="white"/>
<path d="M103.777 65.0788C103.515 65.0759 103.256 65.0094 103.025 64.8848C102.794 64.7603 102.596 64.5815 102.449 64.3637C102.123 63.9156 101.954 63.3725 101.968 62.8187C101.951 62.2888 102.143 61.7733 102.502 61.3836C102.669 61.1993 102.874 61.0531 103.103 60.9548C103.332 60.8566 103.579 60.8087 103.828 60.8142C105.106 60.8142 105.746 61.3844 105.746 62.5247C105.739 62.8818 105.682 63.2362 105.575 63.577L106.141 63.2571V66.4682H104.468L103.616 68.6777H102.396L103.26 66.4682H99.5089V65.9495C99.7285 65.6392 99.8908 65.292 99.988 64.9244C100.061 64.5565 100.093 64.1817 100.084 63.8067C100.113 63.2633 99.9449 62.7277 99.6101 62.2987C99.4447 62.1071 99.238 61.9556 99.0055 61.8557C98.773 61.7558 98.5208 61.71 98.268 61.7219C98.0303 61.7255 97.7972 61.7876 97.5892 61.9026C97.3812 62.0176 97.2047 62.1821 97.0752 62.3815C96.818 62.7331 96.6628 63.1489 96.627 63.5831C96.7241 63.3632 96.882 63.1756 97.0822 63.0426C97.2824 62.9095 97.5165 62.8365 97.7568 62.8322C97.9768 62.825 98.1951 62.874 98.3908 62.9747C98.5866 63.0755 98.7534 63.2245 98.8755 63.4078C99.1286 63.7916 99.2556 64.245 99.2385 64.7046C99.2523 65.163 99.1051 65.6118 98.8224 65.973C98.6936 66.1477 98.5248 66.289 98.3301 66.385C98.1355 66.4811 97.9207 66.5291 97.7037 66.525C97.3631 66.5216 97.0318 66.413 96.7553 66.214C96.4788 66.0151 96.2705 65.7354 96.1591 65.4135C95.9541 64.9135 95.8597 64.375 95.8825 63.8351C95.8552 63.0522 96.1192 62.2869 96.6233 61.6874C96.8584 61.4043 97.1544 61.1782 97.4893 61.0259C97.8242 60.8736 98.1891 60.7991 98.5569 60.808C98.9237 60.7913 99.2897 60.8551 99.6293 60.9948C99.9689 61.1346 100.274 61.3469 100.523 61.617C101.031 62.2174 101.292 62.9888 101.252 63.7746C101.277 64.414 101.146 65.05 100.87 65.6272H103.577L103.777 65.0788ZM97.8506 64.0661C97.8253 63.9984 97.7814 63.9394 97.7239 63.8957C97.6665 63.852 97.5978 63.8254 97.5259 63.8191C97.2559 63.8191 97.1209 64.0965 97.1209 64.6515C97.1174 64.8612 97.1496 65.07 97.216 65.269C97.309 65.5094 97.4477 65.6296 97.6321 65.6296C97.763 65.6296 97.8659 65.5287 97.9408 65.327C97.9937 65.1677 98.0204 65.0009 98.0198 64.833C98.0249 64.5673 97.9674 64.3041 97.8519 64.0648L97.8506 64.0661ZM103.753 61.659C103.609 61.6539 103.466 61.6841 103.337 61.7469C103.208 61.8098 103.096 61.9035 103.012 62.0196C102.829 62.2729 102.737 62.5806 102.751 62.8928C102.739 63.2294 102.834 63.5612 103.023 63.84C103.108 63.9688 103.225 64.0738 103.362 64.1451C103.499 64.2164 103.651 64.2517 103.806 64.2476C103.904 64.2479 104.002 64.2303 104.093 64.1957C104.332 63.6328 104.502 63.0431 104.6 62.4395C104.601 61.9208 104.319 61.6614 103.754 61.6614L103.753 61.659ZM105.318 64.7354L105.084 64.8454L104.785 65.637H105.318V64.7354Z" stroke="white" stroke-width="0.25" stroke-miterlimit="10"/>
<path d="M107.651 64.3674V63.5597C108.617 63.5597 109.1 63.2225 109.1 62.5482C109.11 62.3706 109.077 62.1933 109.005 62.0307V62.2641C109.011 62.4309 108.98 62.5969 108.914 62.7505C108.849 62.9042 108.751 63.0416 108.627 63.1533C108.394 63.3646 108.089 63.479 107.775 63.4732C107.625 63.4722 107.477 63.4402 107.34 63.3792C107.202 63.3182 107.079 63.2295 106.978 63.1188C106.866 63.0076 106.777 62.8748 106.717 62.7283C106.657 62.5819 106.627 62.4248 106.63 62.2666C106.632 62.1175 106.656 61.9695 106.699 61.8269H105.9V60.8673H107.135C107.343 60.8625 107.55 60.882 107.753 60.9253C107.874 60.892 107.998 60.8725 108.123 60.8673C108.562 60.848 108.993 60.9859 109.338 61.2563C109.518 61.4093 109.659 61.6018 109.752 61.8186C109.844 62.0355 109.885 62.2709 109.871 62.5062C109.871 63.747 109.132 64.3674 107.654 64.3674H107.651ZM107.702 61.8442C107.553 61.8442 107.478 61.9677 107.478 62.2283C107.478 62.4889 107.539 62.5988 107.66 62.5988C107.816 62.5988 107.895 62.4708 107.895 62.2147C107.895 61.9586 107.831 61.8351 107.703 61.8442" fill="white"/>
<path d="M107.651 64.3674V63.5597C108.617 63.5597 109.1 63.2225 109.1 62.5482C109.11 62.3706 109.077 62.1933 109.005 62.0307V62.2641C109.011 62.4309 108.98 62.5969 108.914 62.7505C108.849 62.9042 108.751 63.0416 108.627 63.1533C108.394 63.3646 108.089 63.479 107.775 63.4732C107.625 63.4722 107.477 63.4402 107.34 63.3792C107.202 63.3182 107.079 63.2295 106.978 63.1188C106.866 63.0076 106.777 62.8748 106.717 62.7283C106.657 62.5819 106.627 62.4248 106.63 62.2666C106.632 62.1175 106.656 61.9695 106.699 61.8269H105.9V60.8673H107.135C107.343 60.8625 107.55 60.882 107.753 60.9253C107.874 60.892 107.998 60.8725 108.123 60.8673C108.562 60.848 108.993 60.9859 109.338 61.2563C109.518 61.4093 109.659 61.6018 109.752 61.8186C109.844 62.0355 109.885 62.2709 109.871 62.5062C109.869 63.747 109.129 64.3674 107.651 64.3674ZM107.7 61.8442C107.55 61.8442 107.476 61.9677 107.476 62.2283C107.476 62.4889 107.537 62.5988 107.658 62.5988C107.814 62.5988 107.892 62.4708 107.892 62.2147C107.892 61.9586 107.828 61.8347 107.7 61.8429V61.8442Z" stroke="white" stroke-width="0.25" stroke-miterlimit="10"/>
<path d="M113.351 61.7108V66.7807L110.415 68.8568V67.9923L112.205 66.1953V61.712H111.022V66.4719H110.255V60.8833H114.47V61.7145L113.351 61.7108Z" fill="white"/>
<path d="M113.351 61.7108V66.7807L110.415 68.8568V67.9923L112.205 66.1953V61.712H111.022V66.4719H110.255V60.8833H114.47V61.7145L113.351 61.7108Z" stroke="white" stroke-width="0.25" stroke-miterlimit="10"/>
<path d="M122.969 61.7096V66.4659H121.813V61.7096H121.372C121.051 61.6952 120.729 61.737 120.422 61.8331C120.963 62.4046 121.258 63.1665 121.241 63.9538C121.241 65.6533 120.764 66.5034 119.809 66.5042C119.546 66.4979 119.292 66.4052 119.086 66.2406C118.88 66.076 118.734 65.8484 118.669 65.5927C118.493 65.1055 118.409 64.5893 118.423 64.0711C118.38 63.3039 118.602 62.5454 119.051 61.9221C118.709 61.7263 118.32 61.6301 117.926 61.6442C117.678 61.635 117.43 61.6748 117.197 61.7615C116.964 61.8482 116.75 61.98 116.568 62.1493C116.202 62.5136 115.973 62.9938 115.921 63.5079C116.024 63.3063 116.18 63.1366 116.373 63.0167C116.565 62.8969 116.786 62.8314 117.012 62.8274C117.233 62.8204 117.451 62.8699 117.647 62.9713C117.843 63.0727 118.01 63.2226 118.131 63.4066C118.383 63.7865 118.509 64.2357 118.493 64.6911C118.507 65.1475 118.36 65.5943 118.078 65.9534C117.949 66.1276 117.78 66.2685 117.585 66.3641C117.391 66.4598 117.176 66.5073 116.959 66.503C116.624 66.5021 116.297 66.399 116.022 66.2074C115.747 66.0159 115.537 65.745 115.42 65.431C115.213 64.9482 115.117 64.4254 115.138 63.9007C115.114 63.0938 115.396 62.3078 115.928 61.701C116.174 61.4147 116.479 61.1864 116.823 61.0324C117.167 60.8785 117.541 60.8027 117.918 60.8105C118.562 60.7748 119.201 60.9373 119.75 61.2761C120.3 60.9751 120.924 60.836 121.55 60.8747H123.718V61.7059L122.969 61.7096ZM117.104 64.0563C117.079 63.9887 117.035 63.9296 116.977 63.8859C116.92 63.8422 116.851 63.8156 116.779 63.8093C116.509 63.8093 116.374 64.0839 116.374 64.6331C116.37 64.8429 116.403 65.0519 116.47 65.2506C116.563 65.4886 116.701 65.6075 116.885 65.6075C117.017 65.6075 117.12 65.5079 117.194 65.3087C117.247 65.1495 117.274 64.9825 117.273 64.8146C117.278 64.5494 117.22 64.2869 117.103 64.0489L117.104 64.0563ZM119.639 62.4284C119.338 62.9057 119.186 63.4615 119.202 64.0254C119.202 64.974 119.36 65.4478 119.676 65.447C119.956 65.447 120.096 64.9497 120.097 63.955C120.127 63.4083 119.965 62.8683 119.639 62.4284Z" fill="white"/>
<path d="M122.969 61.7096V66.4659H121.813V61.7096H121.372C121.051 61.6952 120.729 61.737 120.422 61.8331C120.963 62.4046 121.258 63.1665 121.241 63.9538C121.241 65.6533 120.764 66.5034 119.809 66.5042C119.546 66.4979 119.292 66.4052 119.086 66.2406C118.88 66.076 118.734 65.8484 118.669 65.5927C118.493 65.1055 118.409 64.5893 118.423 64.0711C118.38 63.3039 118.602 62.5454 119.051 61.9221C118.709 61.7263 118.32 61.6301 117.926 61.6442C117.678 61.635 117.43 61.6748 117.197 61.7615C116.964 61.8482 116.75 61.98 116.568 62.1493C116.202 62.5136 115.973 62.9938 115.921 63.5079C116.024 63.3063 116.18 63.1366 116.373 63.0167C116.565 62.8969 116.786 62.8314 117.012 62.8274C117.233 62.8204 117.451 62.8699 117.647 62.9713C117.843 63.0727 118.01 63.2226 118.131 63.4066C118.383 63.7865 118.509 64.2357 118.493 64.6911C118.507 65.1475 118.36 65.5943 118.078 65.9534C117.949 66.1276 117.78 66.2685 117.585 66.3641C117.391 66.4598 117.176 66.5073 116.959 66.503C116.624 66.5021 116.297 66.399 116.022 66.2074C115.747 66.0159 115.537 65.745 115.42 65.431C115.213 64.9482 115.117 64.4254 115.138 63.9007C115.114 63.0938 115.396 62.3078 115.928 61.701C116.174 61.4147 116.479 61.1864 116.823 61.0324C117.167 60.8785 117.541 60.8027 117.918 60.8105C118.562 60.7748 119.201 60.9373 119.75 61.2761C120.3 60.9751 120.924 60.836 121.55 60.8747H123.718V61.7059L122.969 61.7096ZM117.104 64.0563C117.079 63.9887 117.035 63.9296 116.977 63.8859C116.92 63.8422 116.851 63.8156 116.779 63.8093C116.509 63.8093 116.374 64.0839 116.374 64.6331C116.37 64.8429 116.403 65.0519 116.47 65.2506C116.563 65.4886 116.701 65.6075 116.885 65.6075C117.017 65.6075 117.12 65.5079 117.194 65.3087C117.247 65.1495 117.274 64.9825 117.273 64.8146C117.276 64.5541 117.218 64.2965 117.104 64.0625V64.0563ZM119.64 62.4359C119.339 62.9131 119.187 63.4689 119.203 64.0328C119.203 64.9814 119.361 65.4552 119.677 65.4544C119.957 65.4544 120.097 64.9571 120.098 63.9624C120.127 63.4178 119.965 62.8802 119.64 62.442V62.4359Z" stroke="white" stroke-width="0.25" stroke-miterlimit="10"/>
<path d="M120.756 60.3733C120.652 60.3737 120.549 60.3518 120.455 60.3092C120.36 60.2666 120.275 60.2042 120.207 60.1263C120.131 60.0477 120.073 59.9552 120.033 59.8539C119.994 59.7526 119.975 59.6445 119.978 59.5359C119.972 59.3122 120.052 59.0948 120.202 58.9283C120.271 58.8492 120.356 58.7861 120.452 58.7435C120.547 58.7008 120.651 58.6796 120.756 58.6812C120.86 58.68 120.962 58.7015 121.057 58.7441C121.151 58.7868 121.235 58.8497 121.302 58.9283C121.451 59.0927 121.532 59.3078 121.528 59.5297C121.534 59.7486 121.452 59.9608 121.302 60.1201C121.234 60.198 121.15 60.2604 121.056 60.3031C120.962 60.3457 120.86 60.3675 120.756 60.3671" fill="white"/>
<path d="M120.756 60.3733C120.652 60.3737 120.549 60.3518 120.455 60.3092C120.36 60.2666 120.275 60.2042 120.207 60.1263C120.131 60.0477 120.073 59.9552 120.033 59.8539C119.994 59.7526 119.975 59.6445 119.978 59.5359C119.972 59.3122 120.052 59.0948 120.202 58.9283C120.271 58.8492 120.356 58.7861 120.452 58.7435C120.547 58.7008 120.651 58.6796 120.756 58.6812C120.86 58.68 120.962 58.7015 121.057 58.7441C121.151 58.7868 121.235 58.8497 121.302 58.9283C121.451 59.0927 121.532 59.3078 121.528 59.5297C121.534 59.7486 121.452 59.9608 121.302 60.1201C121.235 60.1992 121.151 60.2627 121.057 60.3064C120.963 60.3501 120.86 60.3729 120.756 60.3733Z" stroke="white" stroke-width="0.25" stroke-miterlimit="10"/>
<path d="M129.097 61.68C129.21 61.4226 129.4 61.2059 129.639 61.0585C129.879 60.9112 130.158 60.8402 130.439 60.855C131.525 60.855 132.069 61.5137 132.069 62.831V64.097C132.051 64.4652 132.092 64.8338 132.192 65.1887C132.246 65.327 132.344 65.4437 132.471 65.5209C132.598 65.5981 132.747 65.6315 132.895 65.6161C133.109 65.6107 133.316 65.537 133.486 65.4057C133.656 65.2744 133.779 65.0924 133.838 64.8862C134.003 64.4434 134.081 63.9728 134.068 63.5004C134.094 63.2045 134.061 62.9063 133.969 62.6236C133.878 62.341 133.73 62.0796 133.536 61.8553C133.338 61.7415 133.124 61.6582 132.901 61.6083C132.535 61.5005 132.353 61.2946 132.353 60.9908C132.353 60.687 132.521 60.5305 132.859 60.5215C133.177 60.5565 133.481 60.674 133.739 60.8625C133.998 61.051 134.203 61.3038 134.334 61.596C134.686 62.1686 134.865 62.83 134.852 63.5017C134.871 64.1795 134.73 64.8523 134.441 65.4654C134.318 65.7718 134.105 66.0342 133.832 66.2186C133.558 66.4029 133.235 66.5006 132.905 66.4991C132.612 66.5257 132.317 66.4803 132.046 66.3671C131.774 66.2539 131.535 66.0763 131.348 65.8495C131.025 65.3195 130.876 64.7022 130.92 64.0834V63.3584C130.939 62.8902 130.885 62.422 130.761 61.9702C130.704 61.8154 130.545 61.738 130.283 61.738C130.164 61.744 130.05 61.7869 129.957 61.8609C129.864 61.9349 129.796 62.0361 129.763 62.1505C129.666 62.4066 129.619 62.6793 129.625 62.9533V66.4708H128.432V63.2892C128.459 62.8532 128.315 62.424 128.032 62.0913C127.89 61.9448 127.718 61.8305 127.528 61.7561C127.338 61.6817 127.134 61.649 126.93 61.6602C126.699 61.654 126.47 61.7018 126.261 61.7998C126.052 61.8978 125.869 62.0432 125.726 62.2246C125.424 62.6075 125.249 63.0751 125.225 63.5622C125.322 63.3446 125.48 63.1593 125.679 63.0281C125.878 62.8968 126.111 62.8251 126.349 62.8212C126.569 62.8138 126.787 62.8626 126.983 62.9629C127.179 63.0631 127.346 63.2116 127.468 63.3942C127.721 63.776 127.847 64.2274 127.83 64.6849C127.844 65.1412 127.697 65.588 127.415 65.9471C127.286 66.1214 127.117 66.2622 126.922 66.3578C126.728 66.4534 126.513 66.501 126.296 66.4967C125.957 66.4938 125.627 66.3866 125.35 66.1895C125.074 65.9924 124.865 65.715 124.752 65.395C124.547 64.8975 124.453 64.3615 124.475 63.824C124.453 63.0346 124.722 62.2647 125.232 61.6614C125.466 61.3781 125.761 61.1516 126.095 60.9989C126.429 60.8461 126.793 60.7711 127.161 60.7796C127.535 60.7401 127.913 60.8019 128.255 60.9585C128.597 61.1152 128.891 61.3609 129.105 61.6701L129.097 61.68ZM126.447 64.0513C126.422 63.9836 126.378 63.9244 126.32 63.8807C126.263 63.837 126.194 63.8105 126.122 63.8043C125.852 63.8043 125.717 64.0789 125.717 64.6281C125.713 64.8379 125.746 65.0469 125.813 65.2456C125.906 65.4844 126.044 65.6037 126.23 65.6037C126.36 65.6037 126.463 65.5041 126.538 65.3049C126.592 65.1458 126.619 64.9788 126.619 64.8108C126.624 64.5452 126.565 64.2822 126.448 64.0439" fill="white"/>
<path d="M129.097 61.68C129.21 61.4226 129.4 61.2059 129.639 61.0585C129.879 60.9112 130.158 60.8402 130.439 60.855C131.525 60.855 132.069 61.5137 132.069 62.831V64.097C132.051 64.4652 132.092 64.8338 132.192 65.1887C132.246 65.327 132.344 65.4437 132.471 65.5209C132.598 65.5981 132.747 65.6315 132.895 65.6161C133.109 65.6107 133.316 65.537 133.486 65.4057C133.656 65.2744 133.779 65.0924 133.838 64.8862C134.003 64.4434 134.081 63.9728 134.068 63.5004C134.094 63.2045 134.061 62.9063 133.969 62.6236C133.878 62.341 133.73 62.0796 133.536 61.8553C133.338 61.7415 133.124 61.6582 132.901 61.6083C132.535 61.5005 132.353 61.2946 132.353 60.9908C132.353 60.687 132.521 60.5305 132.859 60.5215C133.177 60.5565 133.481 60.674 133.739 60.8625C133.998 61.051 134.203 61.3038 134.334 61.596C134.686 62.1686 134.865 62.83 134.852 63.5017C134.871 64.1795 134.73 64.8523 134.441 65.4654C134.318 65.7718 134.105 66.0342 133.832 66.2186C133.558 66.4029 133.235 66.5006 132.905 66.4991C132.612 66.5257 132.317 66.4803 132.046 66.3671C131.774 66.2539 131.535 66.0763 131.348 65.8495C131.025 65.3195 130.876 64.7022 130.92 64.0834V63.3584C130.939 62.8902 130.885 62.422 130.761 61.9702C130.704 61.8154 130.545 61.738 130.283 61.738C130.164 61.744 130.05 61.7869 129.957 61.8609C129.864 61.9349 129.796 62.0361 129.763 62.1505C129.666 62.4066 129.619 62.6793 129.625 62.9533V66.4708H128.432V63.2892C128.459 62.8532 128.315 62.424 128.032 62.0913C127.89 61.9448 127.718 61.8305 127.528 61.7561C127.338 61.6817 127.134 61.649 126.93 61.6602C126.699 61.654 126.47 61.7018 126.261 61.7998C126.052 61.8978 125.869 62.0432 125.726 62.2246C125.424 62.6075 125.249 63.0751 125.225 63.5622C125.322 63.3446 125.48 63.1593 125.679 63.0281C125.878 62.8968 126.111 62.8251 126.349 62.8212C126.569 62.8138 126.787 62.8626 126.983 62.9629C127.179 63.0631 127.346 63.2116 127.468 63.3942C127.721 63.776 127.847 64.2274 127.83 64.6849C127.844 65.1412 127.697 65.588 127.415 65.9471C127.286 66.1214 127.117 66.2622 126.922 66.3578C126.728 66.4534 126.513 66.501 126.296 66.4967C125.957 66.4938 125.627 66.3866 125.35 66.1895C125.074 65.9924 124.865 65.715 124.752 65.395C124.547 64.8975 124.453 64.3615 124.475 63.824C124.453 63.0346 124.722 62.2647 125.232 61.6614C125.466 61.3781 125.761 61.1516 126.095 60.9989C126.429 60.8461 126.793 60.7711 127.161 60.7796C127.534 60.7427 127.911 60.8068 128.252 60.9652C128.592 61.1235 128.884 61.3704 129.097 61.68V61.68ZM126.438 64.0611C126.413 63.9935 126.369 63.9343 126.312 63.8906C126.254 63.8469 126.185 63.8203 126.114 63.8141C125.844 63.8141 125.709 64.0887 125.709 64.6379C125.705 64.8478 125.737 65.0568 125.805 65.2555C125.897 65.4942 126.036 65.6136 126.221 65.6136C126.352 65.6136 126.455 65.514 126.53 65.3147C126.584 65.1557 126.611 64.9887 126.61 64.8207C126.613 64.5579 126.555 64.2981 126.438 64.0624V64.0611Z" stroke="white" stroke-width="0.25" stroke-miterlimit="10"/>
<path d="M132.121 60.3733C132.018 60.3735 131.915 60.3516 131.82 60.309C131.726 60.2664 131.642 60.2041 131.573 60.1263C131.498 60.0477 131.439 59.9552 131.4 59.8539C131.361 59.7526 131.342 59.6445 131.344 59.5359C131.339 59.3122 131.419 59.0948 131.568 58.9283C131.637 58.8492 131.722 58.7861 131.818 58.7435C131.914 58.7008 132.018 58.6796 132.123 58.6812C132.226 58.68 132.329 58.7015 132.423 58.7441C132.517 58.7868 132.601 58.8497 132.668 58.9283C132.818 59.0927 132.898 59.3078 132.894 59.5297C132.9 59.7486 132.819 59.9608 132.668 60.1201C132.6 60.198 132.517 60.2603 132.422 60.303C132.328 60.3456 132.226 60.3675 132.123 60.3671" fill="white"/>
<path d="M132.121 60.3733C132.018 60.3735 131.915 60.3516 131.82 60.309C131.726 60.2664 131.642 60.2041 131.573 60.1263C131.498 60.0477 131.439 59.9552 131.4 59.8539C131.361 59.7526 131.342 59.6445 131.344 59.5359C131.339 59.3122 131.419 59.0948 131.568 58.9283C131.637 58.8492 131.722 58.7861 131.818 58.7435C131.914 58.7008 132.018 58.6796 132.123 58.6812C132.226 58.68 132.329 58.7015 132.423 58.7441C132.517 58.7868 132.601 58.8497 132.668 58.9283C132.818 59.0927 132.898 59.3078 132.894 59.5297C132.9 59.7486 132.819 59.9608 132.668 60.1201C132.601 60.1993 132.517 60.2629 132.423 60.3066C132.328 60.3503 132.225 60.373 132.121 60.3733V60.3733Z" stroke="white" stroke-width="0.25" stroke-miterlimit="10"/>
<path d="M23.5877 51.6054C20.7083 52.5744 17.6957 53.089 14.6581 53.1307C9.77098 53.1307 6.24828 51.8895 3.79239 49.491C2.52579 48.1862 1.53744 46.6376 0.887311 44.9392C0.237187 43.2407 -0.0611521 41.4279 0.0103963 39.6106C0.0412647 30.5848 6.52363 25.4507 15.2816 25.4507C17.8229 25.37 20.3535 25.8136 22.7159 26.7537L21.4516 31.6692C19.4862 30.8353 17.362 30.4424 15.2285 30.5181C10.1871 30.5181 6.35447 33.3921 6.35447 39.2956C6.35447 44.8991 9.84012 48.1806 14.7902 48.1806C15.7928 48.2277 16.7958 48.0981 17.7535 47.7977V42.098H13.6184V37.3122H23.5963L23.5877 51.6054Z" fill="white"/>
<path d="M32.9917 44.976C33.1719 47.519 35.6476 48.7257 38.4652 48.7257C40.2811 48.7535 42.0883 48.4711 43.8092 47.8907L44.6241 52.0356C42.3807 52.9022 39.9906 53.3255 37.5861 53.2818C31.0074 53.2818 27.2291 49.3938 27.2291 43.2543C27.2291 38.2474 30.3061 32.7119 37.0181 32.7119C43.3153 32.7119 45.6897 37.6756 45.6897 42.5516C45.7004 43.3654 45.628 44.1782 45.4736 44.9773L32.9917 44.976ZM40.0803 40.7768C40.0914 39.3022 39.4407 36.7827 36.6934 36.7827C34.1424 36.7827 33.1126 39.1466 32.9423 40.7768H40.0803Z" fill="white"/>
<path d="M49.289 39.4478C49.289 36.9937 49.2137 34.9189 49.1297 33.149H54.3662L54.6453 35.8797H54.7687C55.4186 34.8856 56.3103 34.073 57.3601 33.518C58.41 32.963 59.5836 32.6839 60.7708 32.7069C64.7367 32.7069 67.7223 35.3907 67.7223 41.1905V52.8642H61.6721V41.9426C61.6721 39.4046 60.7794 37.6668 58.6001 37.6668C57.9113 37.6805 57.2444 37.9116 56.6946 38.327C56.1449 38.7424 55.7405 39.321 55.5392 39.9801C55.3818 40.4692 55.3104 40.982 55.3281 41.4955V52.8642H49.2779L49.289 39.4478Z" fill="white"/>
<path d="M77.1938 44.976C77.3728 47.519 79.8497 48.7257 82.6674 48.7257C84.4832 48.7535 86.2905 48.4711 88.0113 47.8907L88.8262 52.0356C86.5829 52.9023 84.1927 53.3255 81.7882 53.2818C75.2096 53.2818 71.4313 49.3938 71.4313 43.2543C71.4313 38.2474 74.5082 32.7119 81.2203 32.7119C87.5174 32.7119 89.8918 37.6756 89.8918 42.5516C89.9027 43.3654 89.8303 44.1782 89.6757 44.9773L77.1938 44.976ZM84.2812 40.7768C84.2923 39.3022 83.6416 36.7827 80.8943 36.7827C78.3433 36.7827 77.3136 39.1466 77.1432 40.7768H84.2812Z" fill="white"/>
<path d="M93.4887 39.6492C93.4887 36.7567 93.4368 34.851 93.3294 33.1528H98.5153L98.7351 36.7999H98.8833C99.2189 35.6551 99.9052 34.6445 100.846 33.9107C101.786 33.1768 102.933 32.7566 104.125 32.7094C104.558 32.6926 104.991 32.7308 105.415 32.8231V38.5833C104.879 38.4654 104.331 38.4078 103.783 38.4117C102.832 38.3334 101.885 38.6069 101.122 39.1803C100.359 39.7538 99.8332 40.5872 99.6438 41.5227C99.5647 41.9712 99.5271 42.4259 99.5315 42.8813V52.8642H93.4813L93.4887 39.6492Z" fill="white"/>
<path d="M119.182 52.864L118.825 50.9052H118.702C118.019 51.6988 117.165 52.3271 116.204 52.743C115.244 53.1589 114.201 53.3514 113.155 53.3062C112.341 53.3486 111.527 53.2236 110.762 52.9389C109.998 52.6543 109.3 52.2159 108.712 51.651C108.124 51.0861 107.658 50.4066 107.342 49.6545C107.027 48.9023 106.869 48.0935 106.878 47.2778C106.878 42.1437 111.403 39.7107 118.275 39.7206V39.4735C118.275 38.4262 117.719 36.9293 114.719 36.9355C112.838 36.962 110.996 37.4683 109.366 38.4064L108.255 34.4852C110.581 33.2676 113.179 32.66 115.804 32.719C122.269 32.719 124.315 36.5959 124.315 41.2236V48.0955C124.286 49.692 124.389 51.2882 124.624 52.8677L119.182 52.864ZM118.451 43.5455C115.274 43.5282 112.818 44.3051 112.818 46.6504C112.792 46.9701 112.837 47.2916 112.949 47.5921C113.061 47.8927 113.237 48.1651 113.466 48.39C113.694 48.615 113.969 48.787 114.271 48.8941C114.574 49.0011 114.896 49.0404 115.215 49.0094C115.907 49.0071 116.581 48.7873 117.142 48.381C117.702 47.9748 118.121 47.4027 118.339 46.7455C118.423 46.4034 118.461 46.0516 118.451 45.6994V43.5455Z" fill="white"/>
<path d="M135.127 24.2751H129.081V52.8594H135.127V24.2751Z" fill="white"/>
</svg>
